<?xml version="1.0" encoding="UTF-8" standalone="no"?>
<!-- Created with Inkscape (http://www.inkscape.org/) -->

<svg
   xmlns:dc="http://purl.org/dc/elements/1.1/"
   xmlns:cc="http://creativecommons.org/ns#"
   xmlns:rdf="http://www.w3.org/1999/02/22-rdf-syntax-ns#"
   xmlns:svg="http://www.w3.org/2000/svg"
   xmlns="http://www.w3.org/2000/svg"
   xmlns:sodipodi="http://sodipodi.sourceforge.net/DTD/sodipodi-0.dtd"
   xmlns:inkscape="http://www.inkscape.org/namespaces/inkscape"
   id="svg32752"
   version="1.1"
   inkscape:version="0.48.4 r9939"
   width="765"
   height="990"
   xml:space="preserve"
   sodipodi:docname="halftone-red-vector.ai"><metadata
     id="metadata32758"><rdf:RDF><cc:Work
         rdf:about=""><dc:format>image/svg+xml</dc:format><dc:type
           rdf:resource="http://purl.org/dc/dcmitype/StillImage" /><dc:title></dc:title></cc:Work></rdf:RDF></metadata><defs
     id="defs32756"><clipPath
       clipPathUnits="userSpaceOnUse"
       id="clipPath32766"><path
         d="M 0,792 612,792 612,0 0,0 0,792 z"
         id="path32768" /></clipPath></defs><sodipodi:namedview
     pagecolor="#ffffff"
     bordercolor="#666666"
     borderopacity="1"
     objecttolerance="10"
     gridtolerance="10"
     guidetolerance="10"
     inkscape:pageopacity="0"
     inkscape:pageshadow="2"
     inkscape:window-width="1920"
     inkscape:window-height="1018"
     id="namedview32754"
     showgrid="false"
     inkscape:zoom="0.67379922"
     inkscape:cx="463.53814"
     inkscape:cy="427.88136"
     inkscape:window-x="-8"
     inkscape:window-y="-8"
     inkscape:window-maximized="1"
     inkscape:current-layer="g32760" /><g
     id="g32760"
     inkscape:groupmode="layer"
     inkscape:label="halftone-red-vector"
     transform="matrix(1.25,0,0,-1.25,0,990)"><g
       id="g32762"><g
         id="g32764"
         clip-path="url(#clipPath32766)"><path
           d="M 612,0 0,0 0,792 612,792 612,0 z"
           style="fill:#ee3338;fill-opacity:1;fill-rule:nonzero;stroke:none"
           id="path32770" /><text
           transform="matrix(1,0,0,-1,1.4956,809.9668)"
           id="text32772"><tspan
             style="fill:#ee3338;fill-opacity:1;fill-rule:nonzero;stroke:none;font-family:Arial Rounded MT Bold;font-variant:normal;font-weight:normal;font-stretch:normal;font-size:18.1843;writing-mode:lr;-inkscape-font-specification:ArialRoundedMTBold"
             x="0 11.1287916 22.1121088 27.0400541 36.8959447 41.4420197 46.369965 62.4630705 73.0281488 83.9387288 94.740203 99.286278 104.2142233 114.0701139 118.6161889 126.1263048 136.927779 141.8557243 152.6571985 163.4586727 173.3145633 184.1160375 195.481225 200.0273 204.9552453 215.9385625 222.3758047 233.3591219 237.9051969 249.2703844 260.2537016 271.3824932 276.3104385 281.2383838 292.039858 296.585933 307.9511205 318.9344377 335.0275432 345.8290174 350.7569627 361.7402799 366.2863549 377.4151465 387.2710371 391.8171121 403.9460402 414.9293574 426.058149 430.9860943 435.9140396 446.7155138 458.0807013 469.0640185 485.157124 495.9585982 500.8865435 511.6334648 521.2529595 532.0544337 542.8559079 549.2931501 560.2764673 567.7865832 576.7332588 582.4249447 593.4082619 600.9183778"
             y="0"
             sodipodi:role="line"
             id="tspan32774">This image is released into public domain by Publicdomainvectors.org</tspan></text>
<text
           transform="matrix(1,0,0,-1,0.1084,797.2534)"
           id="text32776"><tspan
             style="fill:#373535;fill-opacity:1;fill-rule:nonzero;stroke:none;font-family:Arial Rounded MT Bold;font-variant:normal;font-weight:normal;font-stretch:normal;font-size:11.3662;writing-mode:lr;-inkscape-font-specification:ArialRoundedMTBold"
             x="0 6.3878044 13.2529892 20.118174 22.959724 29.7112468 36.4627696 43.3279544 46.1695044 52.9210272 59.786212 66.7423264 72.0503418 75.6079624 78.4495124 88.5085994 95.3737842 102.4776592 105.5578994 109.342844 114.6508594 118.20848 121.05003 128.153905 131.2341452 137.3946256 141.4182604 146.396656 149.4768962 156.4330106 163.2981954 167.3218302 174.073353 176.914903 183.6664258 190.5316106 197.6354856 200.4770356 207.3422204 213.5027008 220.2542236 223.0957736 227.1194084 233.9845932 240.736116 243.577666 246.6579062 256.7169932 263.3207554 270.1404754 276.8919982 279.7335482 283.3707322 290.235917 295.2143126 298.0558626 304.9210474 311.7862322 314.8664724 317.9467126 328.0057996 331.0860398 335.1096746 341.8611974 348.9650724 351.8066224 358.5581452 365.42333 375.482417 385.541504 392.2930268 396.9759012 403.727424 406.8076642 413.559187 416.6394272 419.4809772 426.5848522 433.450037 438.280672 445.384547 452.2497318 458.4102122 465.161735 468.003285 477.2440056 480.3242458 484.3478806 491.2130654 498.0782502 504.943435 508.9670698 511.8086198 518.5601426 524.720623 530.9493006 534.0295408 540.8947256 547.9986006 550.8401506 557.9440256 564.6955484 569.673944 579.733031 582.8132712 588.9737516 595.134232 598.2144722 605.079657"
             y="0"
             sodipodi:role="line"
             id="tspan32778">You can copy, modify, distribute and use the image for unlimited commercial purpose without asking permission</tspan></text>
<path
           d="M 3.205,-0.05 C 3.334,1.923 2.903,3.953 1.844,5.796 1.381,6.604 0.825,7.326 0.198,7.958 l 0,-8.008 3.007,0 z M 0.198,23.866 c 0.823,0.175 1.638,0.448 2.431,0.825 5.486,2.605 7.821,9.156 5.217,14.642 -1.526,3.22 -4.414,5.354 -7.648,6.041 l 0,-21.508 z m 25.637,0.386 c -5.469,-3.31 -7.221,-10.434 -3.906,-15.91 3.313,-5.476 10.434,-7.224 15.91,-3.913 5.474,3.316 7.224,10.436 3.91,15.915 -3.311,5.472 -10.434,7.227 -15.914,3.908 M 0.198,753.398 c 0.549,-0.96 1.771,-1.317 2.755,-0.786 0.998,0.538 1.371,1.782 0.834,2.781 -0.535,0.995 -1.782,1.371 -2.778,0.831 -0.352,-0.189 -0.627,-0.466 -0.811,-0.789 l 0,-2.037 z M 108.394,-0.05 c -4.318,2.976 -10.1,3.014 -14.473,0 l 14.473,0 z m -29.742,0 C 78.528,2.29 77.729,4.619 76.211,6.631 72.167,12.008 64.526,13.081 59.155,9.03 56.165,6.778 54.506,3.416 54.319,-0.05 l 24.333,0 z m 32.268,8.433 c 5.792,4.578 6.779,12.988 2.197,18.785 -4.578,5.795 -12.986,6.782 -18.784,2.2 -5.799,-4.583 -6.78,-12.992 -2.204,-18.784 4.586,-5.8 12.996,-6.781 18.791,-2.201 M 59.245,22.89 c 3.795,-5.95 11.693,-7.698 17.646,-3.908 5.954,3.797 7.698,11.695 3.907,17.649 -3.793,5.948 -11.694,7.696 -17.647,3.905 C 57.203,36.742 55.454,28.843 59.245,22.89 M 0.198,56.792 c 2.961,-1.82 6.704,-2.292 10.201,-0.955 5.984,2.284 8.976,8.978 6.691,14.959 C 14.809,76.774 8.115,79.768 2.134,77.483 1.448,77.222 0.802,76.902 0.198,76.532 l 0,-19.74 z m 48.357,-5.643 c -3.026,6.013 -10.346,8.433 -16.357,5.409 -6.01,-3.025 -8.433,-10.347 -5.408,-16.356 3.027,-6.012 10.347,-8.436 16.356,-5.41 6.012,3.026 8.435,10.346 5.409,16.357 m 8.283,704.571 c 1.338,0.594 1.944,2.154 1.356,3.492 -0.591,1.339 -2.155,1.946 -3.494,1.356 -1.338,-0.589 -1.943,-2.153 -1.352,-3.493 0.59,-1.339 2.154,-1.944 3.49,-1.355 M 10.465,709.042 c 1.559,0.888 2.105,2.865 1.221,4.425 -0.884,1.556 -2.865,2.1 -4.421,1.217 -1.561,-0.885 -2.105,-2.866 -1.221,-4.423 0.884,-1.559 2.866,-2.104 4.421,-1.219 M 29.292,99.895 c -1.909,6.452 -8.681,10.141 -15.133,8.239 C 7.707,106.231 4.013,99.46 5.917,93.005 c 1.905,-6.453 8.676,-10.144 15.128,-8.242 6.457,1.904 10.146,8.675 8.247,15.132 M 58.417,79.852 c -2.668,6.533 -10.127,9.661 -16.663,6.991 -6.53,-2.669 -9.663,-10.129 -6.994,-16.662 2.67,-6.536 10.13,-9.664 16.664,-6.994 6.535,2.668 9.663,10.128 6.993,16.665 M 88.531,64.766 c -3.473,6.522 -11.569,8.99 -18.093,5.518 -6.518,-3.471 -8.991,-11.57 -5.518,-18.089 3.476,-6.52 11.574,-8.989 18.096,-5.517 6.521,3.47 8.985,11.57 5.515,18.088 m 20.754,689.247 c 1.692,0.595 2.579,2.444 1.989,4.135 -0.591,1.692 -2.448,2.583 -4.134,1.99 -1.696,-0.594 -2.579,-2.445 -1.99,-4.135 0.594,-1.691 2.444,-2.584 4.135,-1.99 M 0.198,116.44 c 1.543,2.401 2.208,5.373 1.641,8.402 -0.285,1.517 -0.854,2.911 -1.641,4.135 l 0,-12.537 z m 19.627,549.71 c 2.104,1.261 2.784,3.984 1.528,6.084 -1.261,2.1 -3.984,2.784 -6.088,1.522 -2.1,-1.256 -2.785,-3.983 -1.524,-6.084 1.26,-2.099 3.983,-2.783 6.084,-1.522 m 36.439,47.596 c 0.902,-1.92 3.187,-2.748 5.106,-1.847 1.921,0.901 2.748,3.189 1.846,5.111 -0.9,1.92 -3.186,2.741 -5.109,1.842 -1.921,-0.902 -2.743,-3.186 -1.843,-5.106 m 105.007,78.217 c 0.572,-0.342 1.274,-0.468 1.976,-0.299 0.266,0.064 0.513,0.166 0.736,0.299 l -2.712,0 z M 44.12,126.368 c -1.462,6.907 -8.243,11.317 -15.148,9.861 -6.902,-1.463 -11.318,-8.244 -9.854,-15.15 1.46,-6.903 8.241,-11.317 15.143,-9.854 6.908,1.458 11.317,8.236 9.859,15.143 M 31.004,623.991 c 2.627,1.658 3.413,5.135 1.75,7.762 -1.658,2.629 -5.133,3.416 -7.761,1.753 -2.63,-1.657 -3.415,-5.134 -1.754,-7.763 1.659,-2.627 5.135,-3.414 7.765,-1.752 M 71.052,106.154 c -2.25,7.035 -9.776,10.911 -16.809,8.66 -7.04,-2.251 -10.915,-9.781 -8.665,-16.814 2.251,-7.034 9.783,-10.913 16.819,-8.659 7.035,2.251 10.909,9.778 8.655,16.813 M 0.198,576.768 c 0.154,0.1 0.304,0.208 0.452,0.323 2.709,2.117 3.183,6.031 1.06,8.738 -0.437,0.558 -0.949,1.021 -1.512,1.386 l 0,-10.447 z m 0,-436.935 c 2.284,-1.514 5.09,-2.27 8.029,-1.956 6.69,0.722 11.528,6.727 10.809,13.418 -0.718,6.689 -6.727,11.529 -13.417,10.807 -2.007,-0.216 -3.848,-0.907 -5.421,-1.95 l 0,-20.319 z m 214.345,640.784 c 1.77,0.283 2.978,1.946 2.696,3.714 -0.284,1.769 -1.945,2.977 -3.714,2.694 -1.77,-0.283 -2.976,-1.945 -2.695,-3.713 0.279,-1.769 1.947,-2.978 3.713,-2.695 m -54.665,-32.881 c 2.051,0.545 3.272,2.645 2.731,4.696 -0.546,2.052 -2.646,3.272 -4.701,2.727 -2.047,-0.54 -3.267,-2.644 -2.726,-4.696 0.545,-2.047 2.645,-3.272 4.696,-2.727 M 61.039,670.879 c 1.234,-2.49 4.258,-3.5 6.746,-2.265 2.491,1.24 3.502,4.262 2.261,6.747 -1.236,2.491 -4.258,3.505 -6.744,2.265 -2.49,-1.241 -3.499,-4.257 -2.263,-6.747 m 49.794,39.26 c 2.292,0.864 3.456,3.423 2.587,5.715 -0.863,2.294 -3.421,3.452 -5.715,2.587 -2.291,-0.867 -3.447,-3.421 -2.587,-5.715 0.866,-2.293 3.421,-3.451 5.715,-2.587 m 208.937,81.824 c -0.047,-0.21 -0.075,-0.427 -0.079,-0.651 -0.042,-1.789 1.379,-3.271 3.172,-3.312 1.794,-0.038 3.277,1.379 3.312,3.173 0.006,0.272 -0.022,0.536 -0.078,0.79 l -6.327,0 z m -56.564,-26.556 c 2.112,0.169 3.688,2.018 3.521,4.136 -0.168,2.112 -2.019,3.689 -4.132,3.52 -2.116,-0.167 -3.694,-2.018 -3.526,-4.134 0.17,-2.113 2.021,-3.69 4.137,-3.522 m -54.97,-28.237 c 2.406,0.441 4.004,2.75 3.561,5.162 -0.437,2.411 -2.75,4.008 -5.157,3.565 -2.413,-0.441 -4.006,-2.75 -3.567,-5.161 0.441,-2.412 2.752,-4.004 5.163,-3.566 M 67.654,628.54 c 1.605,-3.043 5.368,-4.209 8.409,-2.604 3.039,1.6 4.209,5.364 2.605,8.405 -1.605,3.042 -5.368,4.209 -8.409,2.605 -3.04,-1.602 -4.204,-5.364 -2.605,-8.406 m 90.811,75.461 c 2.67,0.778 4.201,3.566 3.431,6.235 -0.777,2.67 -3.565,4.206 -6.234,3.431 -2.669,-0.772 -4.206,-3.565 -3.432,-6.234 0.774,-2.67 3.566,-4.205 6.235,-3.432 M 34.507,584.535 c 2.084,-3.136 6.313,-3.993 9.454,-1.909 3.138,2.085 3.991,6.317 1.904,9.455 -2.08,3.14 -6.312,3.991 -9.449,1.907 -3.137,-2.084 -3.992,-6.318 -1.909,-9.453 M 0.198,494.036 c 0.844,1.995 0.843,4.26 0,6.253 l 0,-6.253 z m 109.889,183.062 c -2.88,-1.162 -4.274,-4.442 -3.111,-7.325 1.163,-2.882 4.442,-4.274 7.325,-3.112 2.886,1.164 4.278,4.443 3.116,7.326 -1.167,2.882 -4.446,4.274 -7.33,3.111 M 12.808,173.957 c 0.204,-7.054 6.091,-12.608 13.142,-12.407 7.06,0.207 12.612,6.09 12.405,13.144 -0.204,7.058 -6.087,12.61 -13.143,12.406 -7.058,-0.208 -12.608,-6.087 -12.404,-13.143 m 48.443,-23.959 c -0.963,7.323 -7.678,12.481 -15.001,11.522 -7.324,-0.959 -12.484,-7.674 -11.521,-14.999 0.957,-7.324 7.673,-12.484 14.998,-11.52 7.322,0.955 12.481,7.672 11.524,14.997 M 18.106,537.552 c 3.161,2.6 3.619,7.272 1.023,10.437 -2.604,3.165 -7.271,3.624 -10.439,1.023 -3.162,-2.6 -3.62,-7.27 -1.025,-10.436 2.605,-3.164 7.271,-3.624 10.441,-1.024 M 0.198,193.852 c 1.469,-0.791 3.125,-1.293 4.897,-1.422 6.71,-0.486 12.545,4.557 13.027,11.268 0.492,6.713 -4.553,12.544 -11.267,13.031 -2.399,0.174 -4.687,-0.359 -6.657,-1.421 l 0,-21.456 z m 0,39.77 c 0.463,0.952 0.803,1.983 0.995,3.078 0.438,2.501 0.039,4.956 -0.995,7.076 l 0,-10.154 z m 430.561,542.3 c 1.758,-0.357 3.468,0.774 3.824,2.529 0.36,1.757 -0.772,3.468 -2.529,3.829 -1.753,0.356 -3.469,-0.775 -3.824,-2.53 -0.36,-1.756 0.773,-3.468 2.529,-3.828 M 203.882,693.774 c 3.043,0.63 5,3.607 4.369,6.653 -0.629,3.043 -3.605,4.999 -6.648,4.368 -3.046,-0.63 -5.003,-3.607 -4.373,-6.652 0.63,-3.042 3.611,-5 6.652,-4.369 m 360.256,84.039 c 1.045,-0.446 2.249,0.037 2.696,1.082 0.444,1.043 -0.038,2.247 -1.083,2.693 -1.042,0.447 -2.247,-0.037 -2.692,-1.081 -0.448,-1.044 0.038,-2.248 1.079,-2.694 M 254,722.63 c 2.765,0.283 4.774,2.756 4.493,5.519 -0.287,2.768 -2.76,4.778 -5.522,4.492 -2.765,-0.287 -4.774,-2.756 -4.489,-5.524 0.284,-2.763 2.756,-4.773 5.518,-4.487 m 114.023,41.717 c 2.113,-0.213 3.993,1.327 4.205,3.434 0.212,2.114 -1.326,3.993 -3.44,4.206 -2.107,0.212 -3.991,-1.327 -4.199,-3.439 -0.215,-2.108 1.326,-3.991 3.434,-4.201 M 47.519,544.104 c 2.535,-3.628 7.526,-4.517 11.153,-1.982 3.628,2.53 4.518,7.525 1.984,11.153 -2.531,3.627 -7.527,4.516 -11.156,1.982 -3.626,-2.531 -4.512,-7.527 -1.981,-11.153 M 59.425,194.883 c 0.368,7.383 -5.319,13.654 -12.696,14.019 -7.383,0.364 -13.656,-5.322 -14.015,-12.701 -0.369,-7.377 5.318,-13.654 12.7,-14.016 7.378,-0.363 13.651,5.319 14.011,12.698 m 16.663,391.903 c 1.999,-3.578 6.511,-4.864 10.088,-2.87 3.579,1.994 4.865,6.51 2.877,10.089 -2,3.577 -6.511,4.86 -10.09,2.869 -3.578,-1.994 -4.865,-6.51 -2.875,-10.088 m 38.183,49.39 c -3.462,-1.49 -5.056,-5.503 -3.565,-8.963 1.488,-3.459 5.502,-5.052 8.962,-3.562 3.456,1.491 5.053,5.499 3.562,8.958 -1.49,3.46 -5.502,5.058 -8.959,3.567 M 0.198,284.358 c 0.241,-0.108 0.488,-0.209 0.74,-0.301 6.006,-2.216 12.665,0.855 14.884,6.862 2.209,6.006 -0.86,12.662 -6.866,14.878 -2.965,1.093 -6.089,0.898 -8.758,-0.301 l 0,-21.138 z m 308.698,462.019 c 2.45,0.004 4.435,1.994 4.432,4.442 -0.004,2.449 -1.994,4.434 -4.443,4.43 -2.451,-0.003 -4.434,-1.994 -4.429,-4.442 0.004,-2.453 1.99,-4.434 4.44,-4.43 M 25.98,512.099 c -3.604,-3.104 -4.009,-8.536 -0.906,-12.14 3.099,-3.603 8.532,-4.009 12.135,-0.904 3.604,3.099 4.012,8.536 0.91,12.139 -3.105,3.603 -8.536,4.008 -12.139,0.905 m 470.411,268.466 c 1.395,-0.435 2.878,0.343 3.315,1.74 0.435,1.396 -0.342,2.882 -1.74,3.316 -1.394,0.438 -2.881,-0.344 -3.316,-1.74 -0.434,-1.396 0.344,-2.878 1.741,-3.316 M 2.991,261.497 c -1.679,-6.52 2.243,-13.156 8.76,-14.835 6.519,-1.679 13.158,2.243 14.837,8.764 1.677,6.517 -2.247,13.153 -8.76,14.832 -6.518,1.679 -13.159,-2.243 -14.837,-8.761 M 0.198,365.026 c 3.165,0.264 6.169,1.971 7.974,4.876 3.031,4.873 1.532,11.284 -3.344,14.313 -1.452,0.901 -3.038,1.401 -4.63,1.532 l 0,-20.721 z m 0,-41.915 c 3.865,0.196 7.51,2.431 9.33,6.155 2.665,5.453 0.406,12.033 -5.047,14.697 -1.383,0.676 -2.838,1.035 -4.283,1.105 l 0,-21.957 z m 41.114,-99.835 c 1.059,6.977 -3.737,13.49 -10.719,14.548 -6.978,1.06 -13.488,-3.739 -14.548,-10.715 -1.059,-6.981 3.74,-13.491 10.716,-14.55 6.981,-1.062 13.495,3.736 14.551,10.717 M 0.198,409.33 c 4.074,-1.932 9.078,-0.84 11.942,2.872 3.309,4.288 2.519,10.442 -1.771,13.745 -3.013,2.327 -6.951,2.624 -10.171,1.106 l 0,-17.723 z M 158.99,660.528 c 3.275,1.036 5.094,4.529 4.061,7.808 -1.031,3.279 -4.529,5.098 -7.808,4.066 -3.279,-1.036 -5.097,-4.533 -4.064,-7.808 1.034,-3.279 4.528,-5.097 7.811,-4.066 M 8.733,455.148 c 3.69,-3.498 9.516,-3.341 13.012,0.347 3.497,3.69 3.341,9.516 -0.348,13.011 -3.693,3.497 -9.515,3.342 -13.011,-0.347 -3.497,-3.689 -3.34,-9.515 0.347,-13.011 m 342.598,268.751 c 2.772,-0.213 5.19,1.859 5.404,4.632 0.212,2.771 -1.857,5.187 -4.631,5.4 -2.772,0.213 -5.191,-1.86 -5.404,-4.631 -0.214,-2.772 1.86,-5.187 4.631,-5.401 M 246.754,679.76 c 3.411,0.433 5.827,3.545 5.392,6.956 -0.43,3.41 -3.545,5.826 -6.956,5.391 -3.41,-0.429 -5.821,-3.545 -5.391,-6.956 0.43,-3.41 3.544,-5.822 6.955,-5.391 M 24.026,337.555 c 5.511,-3.249 12.616,-1.414 15.86,4.1 3.254,5.511 1.422,12.614 -4.093,15.866 -5.511,3.249 -12.616,1.416 -15.861,-4.101 -3.25,-5.508 -1.421,-12.613 4.094,-15.865 m 14.179,58.316 c -4.893,3.599 -11.771,2.551 -15.367,-2.343 -3.594,-4.887 -2.546,-11.766 2.343,-15.366 4.893,-3.594 11.771,-2.545 15.366,2.344 3.599,4.892 2.55,11.769 -2.342,15.365 m 163.276,254.622 c 3.671,0.852 5.957,4.512 5.108,8.186 -0.851,3.668 -4.511,5.952 -8.18,5.104 -3.667,-0.847 -5.956,-4.512 -5.11,-8.18 0.851,-3.668 4.512,-5.957 8.182,-5.11 m 269.489,94.09 c 2.038,-0.585 4.165,0.594 4.748,2.633 0.587,2.04 -0.593,4.164 -2.631,4.75 -2.036,0.586 -4.166,-0.594 -4.749,-2.633 -0.586,-2.04 0.593,-4.163 2.632,-4.75 m -61.387,-7.12 c 2.412,-0.433 4.719,1.168 5.152,3.58 0.433,2.41 -1.169,4.717 -3.58,5.15 -2.411,0.434 -4.716,-1.167 -5.15,-3.579 -0.433,-2.41 1.168,-4.716 3.578,-5.151 m 125.18,7.309 c 1.663,-0.667 3.549,0.144 4.215,1.805 0.668,1.667 -0.141,3.554 -1.804,4.218 -1.662,0.667 -3.55,-0.139 -4.218,-1.806 -0.668,-1.661 0.144,-3.549 1.807,-4.217 M 156.648,631.419 c -3.874,-1.324 -5.946,-5.537 -4.624,-9.414 1.325,-3.877 5.532,-5.949 9.414,-4.626 3.874,1.322 5.945,5.535 4.623,9.413 -1.324,3.876 -5.533,5.948 -9.413,4.627 M 38.177,320.967 c -6.114,2.815 -13.349,0.141 -16.16,-5.972 -2.814,-6.11 -0.145,-13.346 5.973,-16.16 6.109,-2.815 13.347,-0.142 16.156,5.971 2.816,6.112 0.143,13.346 -5.969,16.161 m -9.459,-42.141 c -2.284,-6.676 1.269,-13.941 7.95,-16.229 6.674,-2.287 13.942,1.27 16.23,7.948 2.286,6.679 -1.269,13.941 -7.95,16.231 -6.674,2.288 -13.938,-1.271 -16.23,-7.95 m 91.515,316.907 c -4.021,-1.847 -5.787,-6.601 -3.942,-10.625 1.845,-4.021 6.596,-5.785 10.62,-3.944 4.026,1.848 5.785,6.601 3.942,10.626 -1.841,4.021 -6.599,5.785 -10.62,3.943 M 64.225,517.372 c -4.1,-3.005 -4.989,-8.766 -1.983,-12.864 3.01,-4.099 8.764,-4.987 12.866,-1.981 4.101,3.009 4.985,8.765 1.981,12.863 -3.006,4.103 -8.762,4.987 -12.864,1.982 m 232.64,187.085 c 3.107,0.073 5.563,2.656 5.486,5.764 -0.075,3.107 -2.653,5.564 -5.761,5.486 -3.108,-0.078 -5.563,-2.657 -5.491,-5.765 0.078,-3.108 2.658,-5.564 5.766,-5.485 M 86.321,545.685 c 2.412,-4.099 7.685,-5.471 11.778,-3.06 4.104,2.409 5.471,7.682 3.062,11.779 -2.407,4.099 -7.679,5.471 -11.783,3.063 -4.094,-2.411 -5.464,-7.685 -3.057,-11.782 M 31.051,434.68 c -3.849,-4.259 -3.519,-10.83 0.736,-14.681 4.259,-3.854 10.831,-3.526 14.684,0.732 3.85,4.259 3.521,10.83 -0.736,14.682 -4.258,3.853 -10.825,3.525 -14.684,-0.733 m 569.117,302.943 c 1.299,-0.679 2.895,-0.181 3.576,1.118 0.679,1.298 0.175,2.894 -1.118,3.575 -1.298,0.68 -2.9,0.176 -3.575,-1.118 -0.68,-1.298 -0.181,-2.899 1.117,-3.575 M 65.653,239.376 c 1.674,7.196 -2.796,14.382 -9.994,16.057 -7.199,1.678 -14.382,-2.795 -16.059,-9.991 -1.678,-7.198 2.802,-14.383 9.99,-16.058 7.199,-1.678 14.388,2.797 16.063,9.992 M 44.799,476.2 c -4.018,-3.627 -4.337,-9.822 -0.711,-13.843 3.628,-4.016 9.823,-4.335 13.838,-0.713 4.022,3.628 4.341,9.824 0.713,13.843 -3.623,4.017 -9.819,4.337 -13.84,0.713 m 156.222,131.201 c 4.291,1.098 6.875,5.462 5.777,9.749 -1.092,4.286 -5.458,6.87 -9.748,5.772 -4.282,-1.096 -6.871,-5.457 -5.773,-9.743 1.098,-4.288 5.462,-6.875 9.744,-5.778 m -41.154,-16.619 c -4.463,-1.637 -6.756,-6.583 -5.119,-11.047 1.638,-4.462 6.583,-6.751 11.045,-5.113 4.466,1.638 6.758,6.584 5.119,11.047 -1.637,4.463 -6.583,6.751 -11.045,5.113 m 225.7,114.01 c -0.479,-3.071 1.621,-5.95 4.693,-6.428 3.073,-0.484 5.949,1.617 6.43,4.691 0.479,3.071 -1.622,5.949 -4.691,6.429 -3.074,0.478 -5.948,-1.622 -6.432,-4.692 M 336.548,683.01 c 3.43,-0.18 6.36,2.452 6.544,5.884 0.185,3.431 -2.448,6.361 -5.881,6.546 -3.433,0.184 -6.363,-2.448 -6.548,-5.878 -0.184,-3.436 2.452,-6.368 5.885,-6.552 M 50.287,364.238 c -3.857,-5.511 -2.523,-13.105 2.988,-16.967 5.511,-3.861 13.11,-2.522 16.966,2.989 3.867,5.51 2.523,13.105 -2.986,16.967 -5.513,3.861 -13.108,2.521 -16.968,-2.989 M 79.719,282.04 c 2.932,6.782 -0.182,14.655 -6.962,17.586 -6.781,2.931 -14.655,-0.185 -17.59,-6.964 -2.932,-6.781 0.188,-14.653 6.969,-17.584 6.78,-2.932 14.649,0.184 17.583,6.962 m 0.939,158.884 c -4.168,4.409 -11.127,4.606 -15.538,0.438 -4.409,-4.168 -4.606,-11.125 -0.437,-15.538 4.168,-4.41 11.123,-4.606 15.532,-0.438 4.414,4.171 4.611,11.124 0.443,15.538 m 366.668,266.844 c 2.686,-0.704 5.437,0.901 6.141,3.59 0.702,2.69 -0.906,5.438 -3.591,6.143 -2.688,0.703 -5.441,-0.901 -6.146,-3.592 -0.705,-2.688 0.905,-5.436 3.596,-6.141 M 55.094,402.42 c -4.181,-4.843 -3.644,-12.159 1.199,-16.342 4.844,-4.182 12.155,-3.644 16.341,1.197 4.183,4.844 3.648,12.158 -1.197,16.343 -4.842,4.183 -12.16,3.647 -16.343,-1.198 m 12.719,-70.043 c -6.16,3.441 -13.944,1.24 -17.388,-4.922 -3.442,-6.161 -1.24,-13.945 4.923,-17.389 6.161,-3.443 13.944,-1.239 17.387,4.922 3.445,6.162 1.24,13.945 -4.922,17.389 m 55.896,211.145 c 2.224,-4.573 7.735,-6.473 12.304,-4.245 4.568,2.223 6.468,7.734 4.241,12.303 -2.223,4.569 -7.73,6.468 -12.298,4.245 -4.57,-2.227 -6.474,-7.733 -4.247,-12.303 M 101.491,518.78 c -4.603,-2.849 -6.021,-8.888 -3.172,-13.49 2.85,-4.602 8.888,-6.019 13.487,-3.169 4.603,2.85 6.023,8.888 3.174,13.486 -2.849,4.602 -8.889,6.023 -13.489,3.173 m 467.242,187.977 c 1.898,-0.937 4.205,-0.16 5.142,1.744 0.942,1.899 0.16,4.201 -1.74,5.143 -1.904,0.94 -4.203,0.159 -5.143,-1.741 -0.942,-1.903 -0.158,-4.205 1.741,-5.146 M 241.462,636.868 c 4.048,0.61 6.836,4.384 6.229,8.434 -0.608,4.054 -4.382,6.842 -8.438,6.231 -4.044,-0.606 -6.836,-4.386 -6.23,-8.433 0.615,-4.05 4.389,-6.842 8.439,-6.232 m 265.599,73.844 c 2.295,-0.859 4.85,0.307 5.708,2.604 0.859,2.294 -0.308,4.848 -2.601,5.708 -2.298,0.854 -4.852,-0.308 -5.707,-2.605 -0.86,-2.296 0.308,-4.851 2.6,-5.707 M 286.775,662.301 c 3.764,0.18 6.667,3.374 6.486,7.137 -0.179,3.762 -3.371,6.665 -7.136,6.484 -3.763,-0.179 -6.665,-3.372 -6.489,-7.135 0.18,-3.763 3.378,-6.666 7.139,-6.486 M 80.554,480.384 c -4.555,-3.5 -5.403,-10.026 -1.902,-14.574 3.5,-4.554 10.027,-5.403 14.575,-1.901 4.554,3.501 5.405,10.028 1.9,14.575 -3.501,4.554 -10.022,5.402 -14.573,1.9 m 121.943,84.175 c 4.895,1.376 7.75,6.453 6.378,11.349 -1.376,4.892 -6.453,7.747 -11.35,6.37 -4.897,-1.371 -7.745,-6.451 -6.374,-11.344 1.372,-4.897 6.455,-7.746 11.346,-6.375 m 395.698,102.426 c 2.108,-1.253 4.827,-0.561 6.083,1.544 1.254,2.105 0.561,4.827 -1.545,6.08 -2.104,1.252 -4.827,0.565 -6.078,-1.545 -1.253,-2.104 -0.564,-4.826 1.54,-6.079 M 164.873,550.556 c -5.04,-1.981 -7.514,-7.667 -5.532,-12.704 1.982,-5.037 7.673,-7.514 12.709,-5.533 5.037,1.983 7.51,7.674 5.529,12.71 -1.982,5.035 -7.67,7.508 -12.706,5.527 M 112.998,426.315 c 4.984,4.021 5.76,11.314 1.74,16.295 -4.02,4.98 -11.312,5.762 -16.294,1.74 -4.98,-4.02 -5.757,-11.311 -1.737,-16.295 4.017,-4.978 11.309,-5.756 16.291,-1.74 m -8.871,-18.765 c -4.733,4.783 -12.447,4.825 -17.23,0.091 -4.781,-4.737 -4.823,-12.446 -0.089,-17.228 4.733,-4.783 12.445,-4.822 17.229,-0.091 4.781,4.739 4.82,12.448 0.09,17.228 m 174.501,212.432 c 4.414,0.311 7.739,4.144 7.425,8.558 -0.311,4.413 -4.144,7.738 -8.56,7.422 -4.411,-0.315 -7.736,-4.142 -7.42,-8.557 0.31,-4.412 4.142,-7.738 8.555,-7.423 m 45.051,21.77 c 4.092,-0.123 7.51,3.095 7.634,7.189 0.127,4.095 -3.091,7.514 -7.186,7.636 -4.093,0.123 -7.512,-3.091 -7.635,-7.185 -0.127,-4.094 3.092,-7.513 7.187,-7.64 m 212.774,39.69 c -1.171,-2.522 -0.081,-5.516 2.44,-6.686 2.519,-1.175 5.51,-0.082 6.687,2.436 1.171,2.522 0.081,5.515 -2.441,6.685 -2.518,1.176 -5.511,0.083 -6.686,-2.435 M 238.116,594.017 c 4.682,0.819 7.82,5.273 7.002,9.958 -0.812,4.683 -5.27,7.818 -9.955,7.004 -4.683,-0.814 -7.816,-5.273 -7.005,-9.957 0.819,-4.684 5.274,-7.819 9.958,-7.005 M 82.63,317.796 c 6.15,-4.099 14.454,-2.436 18.548,3.714 4.099,6.147 2.436,14.45 -3.707,18.548 -6.153,4.093 -14.455,2.431 -18.55,-3.713 -4.097,-6.149 -2.434,-14.452 3.709,-18.549 m 32.632,163.08 c -5.084,-3.316 -6.517,-10.121 -3.205,-15.211 3.312,-5.085 10.126,-6.518 15.211,-3.205 5.085,3.315 6.518,10.125 3.201,15.209 -3.312,5.086 -10.12,6.523 -15.207,3.207 m 310.212,189.303 c 3.344,-0.795 6.698,1.273 7.493,4.618 0.794,3.345 -1.275,6.698 -4.618,7.493 -3.34,0.794 -6.7,-1.273 -7.492,-4.619 -0.794,-3.345 1.272,-6.697 4.617,-7.492 m 55.591,5.51 c 2.94,-1.019 6.148,0.533 7.165,3.469 1.022,2.94 -0.532,6.145 -3.466,7.164 -2.936,1.019 -6.146,-0.531 -7.166,-3.468 -1.02,-2.939 0.532,-6.145 3.467,-7.165 M 82.205,353.434 c 5.446,-4.489 13.496,-3.71 17.983,1.74 4.492,5.445 3.713,13.498 -1.736,17.984 -5.445,4.49 -13.494,3.711 -17.987,-1.736 -4.485,-5.448 -3.709,-13.497 1.74,-17.988 m 284.736,312.908 c -0.496,-3.734 2.13,-7.161 5.864,-7.656 3.733,-0.495 7.161,2.129 7.657,5.863 0.495,3.739 -2.129,7.165 -5.862,7.657 -3.735,0.495 -7.163,-2.129 -7.659,-5.864 m -234,-163.828 c 2.635,-5.106 8.902,-7.103 14.003,-4.471 5.102,2.633 7.109,8.9 4.471,14.002 -2.628,5.102 -8.9,7.104 -14.002,4.472 -5.102,-2.633 -7.103,-8.901 -4.472,-14.003 m 179.791,97.678 c 4.758,-0.038 8.637,3.791 8.672,8.543 0.034,4.755 -3.791,8.636 -8.545,8.668 -4.75,0.037 -8.634,-3.791 -8.667,-8.545 -0.035,-4.753 3.788,-8.634 8.54,-8.666 M 129.343,356.512 c 5.131,5.318 4.974,13.783 -0.343,18.912 -5.32,5.125 -13.783,4.974 -18.913,-0.344 -5.124,-5.32 -4.975,-13.781 0.345,-18.911 5.314,-5.127 13.781,-4.975 18.911,0.343 m 6.54,51.306 c -4.558,5.386 -12.62,6.062 -18.008,1.503 -5.388,-4.559 -6.064,-12.619 -1.506,-18.008 4.56,-5.389 12.621,-6.063 18.008,-1.502 5.393,4.554 6.065,12.62 1.506,18.007 m 134.82,188.071 c -5.063,-0.48 -8.776,-4.968 -8.299,-10.028 0.479,-5.061 4.965,-8.774 10.027,-8.298 5.059,0.478 8.776,4.965 8.299,10.026 -0.48,5.065 -4.967,8.778 -10.027,8.3 m 134.742,35.992 c 4.007,-0.852 7.947,1.703 8.798,5.708 0.857,4.004 -1.7,7.942 -5.705,8.798 -4.008,0.851 -7.944,-1.703 -8.8,-5.707 -0.851,-4.009 1.701,-7.948 5.707,-8.799 m 102.033,17.986 c -1.38,-3.148 0.057,-6.817 3.208,-8.196 3.146,-1.377 6.817,0.056 8.195,3.205 1.38,3.148 -0.058,6.821 -3.207,8.197 -3.149,1.38 -6.815,-0.053 -8.196,-3.206 M 236.715,551.282 c 5.307,1.051 8.763,6.206 7.71,11.512 -1.052,5.31 -6.208,8.762 -11.518,7.709 -5.306,-1.048 -8.762,-6.202 -7.706,-11.513 1.049,-5.31 6.204,-8.761 11.514,-7.708 m -30.821,-29.247 c 5.489,1.68 8.58,7.488 6.899,12.98 -1.679,5.49 -7.49,8.581 -12.979,6.898 -5.491,-1.679 -8.578,-7.489 -6.9,-12.979 1.679,-5.49 7.489,-8.577 12.98,-6.899 m 246.512,126.313 c -1.155,-3.587 0.814,-7.428 4.401,-8.577 3.589,-1.155 7.426,0.815 8.582,4.401 1.154,3.586 -0.819,7.427 -4.403,8.581 -3.586,1.155 -7.427,-0.818 -8.58,-4.405 M 130.664,443.806 c -5.547,-3.804 -6.964,-11.381 -3.16,-16.934 3.809,-5.551 11.387,-6.968 16.936,-3.161 5.549,3.806 6.966,11.384 3.164,16.934 -3.805,5.553 -11.387,6.969 -16.94,3.161 m 17.922,34.06 c -5.618,-3.066 -7.685,-10.105 -4.623,-15.723 3.068,-5.616 10.105,-7.684 15.723,-4.621 5.618,3.066 7.689,10.104 4.617,15.721 -3.061,5.619 -10.1,7.691 -15.717,4.623 m 23.071,32.935 c -5.6,-2.354 -8.226,-8.794 -5.871,-14.392 2.349,-5.597 8.795,-8.221 14.392,-5.87 5.596,2.354 8.224,8.798 5.866,14.394 -2.351,5.594 -8.794,8.223 -14.387,5.868 m 178.481,116.531 c -0.479,-4.397 2.7,-8.353 7.098,-8.831 4.397,-0.479 8.35,2.697 8.828,7.096 0.481,4.401 -2.691,8.351 -7.093,8.831 -4.397,0.482 -8.353,-2.695 -8.833,-7.096 m 221.763,19.637 c -2.71,1.531 -6.14,0.572 -7.669,-2.134 -1.527,-2.707 -0.572,-6.137 2.134,-7.665 2.706,-1.53 6.141,-0.573 7.669,2.134 1.527,2.706 0.571,6.137 -2.134,7.665 M 293.772,568.031 c 0.087,-5.412 4.543,-9.728 9.955,-9.643 5.412,0.087 9.726,4.542 9.642,9.953 -0.087,5.414 -4.543,9.728 -9.954,9.643 -5.412,-0.087 -9.728,-4.541 -9.643,-9.953 m -89.868,-66.139 c -6.075,-2.015 -9.368,-8.571 -7.354,-14.646 2.014,-6.072 8.565,-9.367 14.64,-7.353 6.077,2.015 9.369,8.57 7.358,14.641 -2.015,6.076 -8.569,9.368 -14.644,7.358 m 52.735,42.331 c 0.671,-5.699 5.837,-9.778 11.541,-9.106 5.699,0.671 9.778,5.838 9.106,11.537 -0.673,5.703 -5.839,9.782 -11.542,9.11 -5.699,-0.671 -9.777,-5.838 -9.105,-11.541 M 147.672,407.628 c -5.993,-4.315 -7.353,-12.671 -3.037,-18.665 4.316,-5.998 12.671,-7.358 18.67,-3.042 5.995,4.317 7.353,12.672 3.037,18.67 -4.313,5.993 -12.675,7.353 -18.67,3.037 m 441.762,190.783 c 2.848,-1.921 6.717,-1.163 8.633,1.69 1.921,2.85 1.163,6.72 -1.69,8.634 -2.849,1.921 -6.721,1.163 -8.637,-1.69 -1.918,-2.849 -1.159,-6.718 1.694,-8.634 m -53.347,7.745 c 3.317,-1.777 7.45,-0.52 9.226,2.801 1.774,3.32 0.52,7.451 -2.8,9.228 -3.325,1.778 -7.456,0.521 -9.229,-2.8 -1.776,-3.32 -0.523,-7.452 2.803,-9.229 m -107.177,6.809 c -1.259,-4.242 1.157,-8.696 5.403,-9.958 4.242,-1.257 8.699,1.164 9.958,5.409 1.257,4.242 -1.163,8.701 -5.405,9.957 -4.246,1.257 -8.7,-1.162 -9.956,-5.408 m -93.73,-25.139 c -0.435,-5.064 3.315,-9.518 8.38,-9.953 5.069,-0.434 9.523,3.32 9.958,8.385 0.433,5.065 -3.322,9.52 -8.387,9.953 -5.065,0.434 -9.518,-3.32 -9.951,-8.385 M 180.194,471.578 c -6.141,-2.751 -8.89,-9.957 -6.137,-16.099 2.751,-6.141 9.963,-8.886 16.099,-6.133 6.141,2.751 8.887,9.958 6.137,16.099 -2.752,6.14 -9.958,8.885 -16.099,6.133 m 207.064,121.361 c 4.672,-0.882 9.175,2.188 10.055,6.859 0.885,4.672 -2.187,9.172 -6.858,10.055 -4.672,0.885 -9.171,-2.185 -10.054,-6.857 -0.886,-4.672 2.185,-9.176 6.857,-10.057 M 161.445,439.929 c -6.115,-3.521 -8.215,-11.333 -4.69,-17.45 3.52,-6.119 11.331,-8.216 17.449,-4.693 6.118,3.522 8.217,11.333 4.692,17.451 -3.52,6.117 -11.333,8.217 -17.451,4.692 M 480.092,617.24 c -1.551,-3.787 0.258,-8.119 4.044,-9.675 3.793,-1.556 8.124,0.258 9.678,4.045 1.552,3.792 -0.257,8.119 -4.043,9.674 -3.791,1.557 -8.124,-0.253 -9.679,-4.044 M 232.481,530.179 c -5.924,-1.318 -9.657,-7.185 -8.343,-13.114 1.318,-5.924 7.19,-9.663 13.113,-8.344 5.925,1.314 9.664,7.186 8.346,13.113 -1.317,5.925 -7.185,9.659 -13.116,8.345 m 174.652,46.588 c -1.332,-4.904 1.567,-9.96 6.471,-11.291 4.907,-1.331 9.96,1.567 11.292,6.473 1.33,4.905 -1.569,9.961 -6.473,11.291 -4.905,1.331 -9.961,-1.567 -11.29,-6.473 m 100.252,-2.763 c 3.95,-1.993 8.769,-0.409 10.762,3.541 1.995,3.952 0.411,8.767 -3.541,10.761 -3.948,1.997 -8.766,0.412 -10.761,-3.537 -1.996,-3.952 -0.406,-8.771 3.54,-10.765 m 104.506,-2.925 c -1.861,-0.117 -3.666,-0.992 -4.917,-2.569 -2.339,-2.952 -1.844,-7.243 1.109,-9.582 1.134,-0.9 2.465,-1.38 3.808,-1.463 l 0,13.614 z m -54.667,-1.488 c 3.453,-2.208 8.039,-1.199 10.243,2.251 2.209,3.452 1.195,8.038 -2.251,10.244 -3.451,2.207 -8.037,1.196 -10.244,-2.252 -2.205,-3.452 -1.2,-8.037 2.252,-10.243 m -91.771,18.98 c -4.436,1.699 -9.417,-0.515 -11.119,-4.954 -1.698,-4.437 0.516,-9.417 4.956,-11.119 4.441,-1.705 9.415,0.515 11.117,4.953 1.705,4.439 -0.513,9.417 -4.954,11.12 M 333.092,557.614 c -5.731,0.362 -10.661,-3.995 -11.023,-9.727 -0.357,-5.728 4.001,-10.662 9.727,-11.023 5.733,-0.355 10.666,4.001 11.023,9.729 0.356,5.731 -3.999,10.666 -9.727,11.021 m 41.031,15.142 c -5.343,0.879 -10.382,-2.735 -11.263,-8.074 -0.885,-5.339 2.73,-10.383 8.07,-11.263 5.342,-0.882 10.382,2.73 11.262,8.073 0.886,5.34 -2.73,10.379 -8.069,11.264 M 190.468,432.948 c -6.672,-3.177 -9.5,-11.157 -6.322,-17.827 3.172,-6.668 11.152,-9.503 17.82,-6.327 6.671,3.179 9.504,11.158 6.326,17.829 -3.177,6.669 -11.156,9.497 -17.824,6.325 M 295.796,538.38 c -6.064,-0.238 -10.788,-5.342 -10.55,-11.411 0.235,-6.067 5.343,-10.789 11.41,-10.551 6.068,0.238 10.787,5.344 10.549,11.41 -0.236,6.068 -5.34,10.79 -11.409,10.552 m -43.024,-35.821 c 0.898,-6.338 6.761,-10.747 13.099,-9.85 6.334,0.891 10.742,6.755 9.851,13.092 -0.897,6.335 -6.76,10.743 -13.098,9.851 -6.334,-0.897 -10.743,-6.759 -9.852,-13.093 m -18.888,-12.5 c -6.537,-1.609 -10.524,-8.208 -8.91,-14.744 1.609,-6.534 8.207,-10.523 14.744,-8.913 6.532,1.613 10.522,8.213 8.907,14.747 -1.607,6.535 -8.207,10.523 -14.741,8.91 m -24.099,-27.793 c -6.647,-2.373 -10.107,-9.682 -7.731,-16.331 2.374,-6.644 9.683,-10.108 16.326,-7.734 6.652,2.374 10.115,9.686 7.739,16.333 -2.373,6.648 -9.686,10.108 -16.334,7.732 m 101.046,45.317 c -0.251,-6.396 4.728,-11.784 11.122,-12.034 6.395,-0.25 11.779,4.73 12.029,11.124 0.25,6.396 -4.728,11.785 -11.123,12.034 -6.395,0.25 -11.779,-4.73 -12.028,-11.124 m 131.928,47.399 c -5.097,1.823 -10.701,-0.836 -12.524,-5.933 -1.821,-5.092 0.834,-10.702 5.934,-12.524 5.096,-1.817 10.7,0.835 12.523,5.933 1.817,5.097 -0.837,10.702 -5.933,12.524 M 237.092,450.213 c -7.132,-1.931 -11.342,-9.277 -9.403,-16.409 1.935,-7.129 9.28,-11.337 16.407,-9.405 7.129,1.932 11.339,9.282 9.406,16.41 -1.932,7.128 -9.278,11.341 -16.41,9.404 m 335.453,93.428 c -2.669,-3.533 -1.971,-8.553 1.559,-11.222 3.53,-2.67 8.552,-1.97 11.222,1.56 2.665,3.533 1.971,8.553 -1.56,11.222 -3.534,2.669 -8.556,1.969 -11.221,-1.56 m -46.032,-4.119 c 4.064,-2.469 9.355,-1.175 11.824,2.891 2.469,4.061 1.175,9.355 -2.888,11.824 -4.064,2.47 -9.36,1.176 -11.825,-2.89 -2.466,-4.062 -1.175,-9.356 2.889,-11.825 M 278.606,485.743 c 0.419,-6.718 6.2,-11.82 12.919,-11.402 6.714,0.418 11.821,6.2 11.4,12.918 -0.419,6.714 -6.199,11.82 -12.919,11.399 -6.714,-0.419 -11.815,-6.2 -11.4,-12.915 m 108.497,54.065 c -1.372,-5.572 2.03,-11.206 7.607,-12.577 5.571,-1.376 11.205,2.027 12.578,7.604 1.375,5.573 -2.027,11.205 -7.603,12.581 -5.573,1.372 -11.206,-2.031 -12.582,-7.608 m -39.968,-14.006 c -0.849,-6.01 3.331,-11.571 9.342,-12.418 6.013,-0.851 11.574,3.333 12.422,9.344 0.852,6.01 -3.332,11.569 -9.343,12.421 -6.01,0.848 -11.571,-3.333 -12.421,-9.347 m 133.174,14.969 c 4.588,-2.187 10.081,-0.237 12.265,4.352 2.189,4.59 0.239,10.08 -4.351,12.267 -4.589,2.186 -10.08,0.236 -12.267,-4.353 -2.186,-4.589 -0.238,-10.08 4.353,-12.266 M 250.812,460.929 c 1.146,-6.966 7.722,-11.679 14.687,-10.527 6.963,1.146 11.675,7.723 10.527,14.686 -1.152,6.965 -7.723,11.678 -14.687,10.526 -6.965,-1.15 -11.678,-7.721 -10.527,-14.685 m 242.93,60.714 c -2.703,-4.693 -1.094,-10.683 3.6,-13.385 4.687,-2.702 10.679,-1.089 13.379,3.599 2.703,4.692 1.093,10.682 -3.599,13.384 -4.692,2.702 -10.683,1.09 -13.38,-3.598 m -192.28,-54.671 c -0.108,-7.06 5.515,-12.868 12.573,-12.978 7.06,-0.116 12.869,5.514 12.981,12.569 0.114,7.057 -5.516,12.867 -12.575,12.982 -7.054,0.11 -12.869,-5.514 -12.979,-12.573 m 81.205,43.985 c -6.243,1.387 -12.434,-2.552 -13.821,-8.799 -1.388,-6.248 2.55,-12.435 8.799,-13.823 6.248,-1.387 12.434,2.552 13.822,8.798 1.388,6.249 -2.55,12.435 -8.8,13.824 m -49.425,-24.533 c -0.785,-6.682 3.992,-12.737 10.675,-13.524 6.686,-0.785 12.734,3.992 13.523,10.674 0.79,6.681 -3.987,12.737 -10.669,13.522 -6.687,0.788 -12.74,-3.991 -13.529,-10.672 m 88.468,34.159 c -5.76,1.907 -11.978,-1.213 -13.887,-6.978 -1.912,-5.76 1.213,-11.98 6.977,-13.888 5.762,-1.911 11.978,1.213 13.888,6.972 1.911,5.766 -1.213,11.985 -6.978,13.894 m 27.94,-0.333 c -2.343,-5.24 -0.004,-11.39 5.238,-13.736 5.238,-2.35 11.385,-0.004 13.736,5.236 2.346,5.236 0.004,11.387 -5.238,13.737 -5.24,2.346 -11.386,0.005 -13.736,-5.237 m 89.788,-2.849 c -2.972,-4.127 -2.036,-9.876 2.092,-12.848 4.122,-2.969 9.876,-2.035 12.844,2.093 2.969,4.126 2.036,9.874 -2.093,12.847 -4.123,2.969 -9.875,2.031 -12.843,-2.092 m 58.749,-9.446 c -3.558,3.157 -8.995,2.83 -12.148,-0.729 -3.155,-3.559 -2.831,-8.999 0.731,-12.151 3.556,-3.154 8.994,-2.825 12.149,0.733 3.154,3.557 2.824,8.995 -0.732,12.147 M 286.053,458.881 c -7.363,-0.629 -12.816,-7.108 -12.185,-14.47 0.629,-7.357 7.107,-12.815 14.463,-12.182 7.362,0.63 12.815,7.106 12.185,14.467 -0.626,7.359 -7.104,12.816 -14.463,12.185 m 49.719,-0.217 c -7.355,0.691 -13.879,-4.705 -14.573,-12.057 -0.694,-7.357 4.707,-13.879 12.061,-14.572 7.351,-0.697 13.88,4.703 14.57,12.058 0.696,7.353 -4.704,13.875 -12.058,14.571 m 41.675,0.246 c 1.371,6.924 -3.128,13.646 -10.05,15.017 -6.924,1.372 -13.647,-3.131 -15.019,-10.055 -1.371,-6.923 3.13,-13.646 10.058,-15.013 6.921,-1.372 13.644,3.127 15.011,10.051 m 130.25,30.928 c -3.244,-4.737 -2.038,-11.206 2.7,-14.453 4.738,-3.246 11.207,-2.038 14.453,2.699 3.245,4.736 2.04,11.205 -2.698,14.453 -4.738,3.242 -11.205,2.034 -14.455,-2.699 m -120.575,-12.5 c -1.965,-6.436 1.654,-13.245 8.086,-15.21 6.437,-1.969 13.245,1.65 15.215,8.085 1.97,6.433 -1.653,13.246 -8.086,15.211 -6.436,1.97 -13.245,-1.65 -15.215,-8.086 m 37.841,9.126 c -2.481,-5.899 0.291,-12.692 6.19,-15.173 5.9,-2.481 12.688,0.291 15.169,6.187 2.485,5.899 -0.286,12.692 -6.185,15.173 -5.9,2.481 -12.693,-0.287 -15.174,-6.187 m 55.308,8.689 c -5.33,2.906 -12.002,0.945 -14.915,-4.385 -2.907,-5.331 -0.946,-12.005 4.385,-14.911 5.331,-2.908 12.005,-0.946 14.91,4.38 2.908,5.33 0.949,12.005 -4.38,14.916 m 84.868,-10.667 c -4.133,3.493 -10.316,2.977 -13.81,-1.154 -3.498,-4.13 -2.982,-10.313 1.152,-13.81 4.133,-3.496 10.317,-2.981 13.81,1.154 3.493,4.133 2.977,10.314 -1.152,13.81 M 595.533,471 c -3.66,-3.529 -3.763,-9.356 -0.237,-13.016 3.53,-3.657 9.354,-3.761 13.015,-0.232 3.657,3.53 3.764,9.355 0.234,13.011 -3.529,3.66 -9.352,3.767 -13.012,0.237 m -62.188,-11.328 c -4.723,3.815 -11.644,3.074 -15.454,-1.65 -3.813,-4.725 -3.077,-11.641 1.651,-15.457 4.722,-3.811 11.642,-3.07 15.453,1.655 3.812,4.723 3.077,11.64 -1.65,15.452 m -39.935,4.709 c -5.363,3.495 -12.542,1.981 -16.034,-3.379 -3.495,-5.365 -1.98,-12.54 3.378,-16.033 5.365,-3.496 12.541,-1.982 16.034,3.378 3.497,5.362 1.981,12.54 -3.378,16.034 m 65.977,-14.835 c -4.043,-4.082 -4.005,-10.661 0.071,-14.698 4.083,-4.04 10.661,-4.009 14.703,0.073 4.036,4.079 4.004,10.662 -0.072,14.698 -4.083,4.044 -10.662,4.009 -14.702,-0.073 m 52.504,-13.048 c -3.379,1.748 -7.619,1.432 -10.74,-1.143 -4.177,-3.438 -4.774,-9.612 -1.331,-13.793 2.993,-3.632 8.055,-4.557 12.071,-2.471 l 0,17.407 z M 377.429,423.822 c 7.109,-1.997 14.494,2.15 16.487,9.261 1.997,7.111 -2.149,14.494 -9.263,16.493 -7.111,1.993 -14.494,-2.151 -16.49,-9.266 -1.994,-7.112 2.153,-14.494 9.266,-16.488 m 48.278,18.55 c 2.584,6.568 -0.644,13.987 -7.211,16.571 -6.571,2.588 -13.983,-0.644 -16.571,-7.212 -2.585,-6.566 0.64,-13.983 7.212,-16.568 6.566,-2.584 13.982,0.642 16.57,7.209 m 18.048,-0.007 c 5.982,-3.084 13.325,-0.737 16.413,5.241 3.084,5.981 0.737,13.327 -5.238,16.415 -5.984,3.086 -13.33,0.74 -16.415,-5.242 -3.082,-5.981 -0.737,-13.327 5.24,-16.414 M 563.73,416.422 c -4.593,-3.966 -5.103,-10.907 -1.136,-15.5 3.967,-4.594 10.91,-5.1 15.503,-1.133 4.597,3.967 5.105,10.907 1.138,15.5 -3.967,4.594 -10.908,5.101 -15.505,1.133 m -111.085,-3.069 c 6.001,-3.718 13.875,-1.866 17.588,4.136 3.718,5.997 1.868,13.876 -4.135,17.589 -5.998,3.717 -13.876,1.866 -17.59,-4.135 -3.717,-5.999 -1.866,-13.876 4.137,-17.59 m -33.228,-5.502 c 6.644,-3.231 14.647,-0.473 17.883,6.171 3.233,6.644 0.47,14.644 -6.173,17.878 -6.641,3.233 -14.645,0.475 -17.878,-6.169 -3.234,-6.642 -0.472,-14.646 6.168,-17.88 m 192.474,-5.704 c -2.913,0.839 -6.167,0.401 -8.846,-1.475 -4.703,-3.292 -5.845,-9.774 -2.55,-14.477 2.615,-3.733 7.244,-5.221 11.396,-4.025 l 0,19.977 z m -109.039,31.419 c -5.335,4.106 -12.982,3.108 -17.087,-2.223 -4.102,-5.335 -3.106,-12.982 2.228,-17.084 5.335,-4.105 12.981,-3.109 17.084,2.225 4.105,5.333 3.11,12.98 -2.225,17.082 m 21.546,-6.976 c -4.395,-4.652 -4.188,-11.986 0.462,-16.382 4.653,-4.396 11.987,-4.187 16.384,0.464 4.394,4.651 4.188,11.983 -0.464,16.38 -4.65,4.393 -11.983,4.19 -16.382,-0.462 m -66.515,-41.947 c 5.957,-4.368 14.33,-3.081 18.695,2.878 4.364,5.958 3.079,14.327 -2.877,18.691 -5.959,4.368 -14.328,3.084 -18.694,-2.874 -4.371,-5.961 -3.08,-14.326 2.876,-18.695 m 50.79,18.453 c -5.239,4.73 -13.318,4.313 -18.047,-0.929 -4.726,-5.239 -4.312,-13.318 0.931,-18.048 5.238,-4.724 13.319,-4.311 18.046,0.93 4.729,5.242 4.311,13.319 -0.93,18.047 m 103.218,-35.417 c -3.218,1.6 -7.156,1.592 -10.482,-0.37 -5.232,-3.082 -6.97,-9.819 -3.886,-15.05 2.951,-5.005 9.247,-6.813 14.368,-4.257 l 0,19.677 z m -47.366,16.653 c -5.156,-3.792 -6.26,-11.041 -2.469,-16.196 3.791,-5.158 11.041,-6.264 16.195,-2.474 5.159,3.791 6.265,11.046 2.47,16.202 -3.791,5.156 -11.042,6.261 -16.196,2.468 m -37.166,11.575 c -4.991,-4.516 -5.376,-12.218 -0.858,-17.208 4.515,-4.986 12.217,-5.371 17.208,-0.859 4.985,4.515 5.371,12.217 0.86,17.207 -4.516,4.992 -12.217,5.375 -17.21,0.86 m 84.532,-65.51 c -2.848,5.661 -9.727,7.985 -15.433,5.194 -5.752,-2.809 -8.131,-9.745 -5.323,-15.497 2.809,-5.748 9.751,-8.132 15.497,-5.323 2.364,1.157 4.16,3.01 5.259,5.193 l 0,10.433 z M 492.09,373.848 c -5.357,-5.085 -5.587,-13.547 -0.502,-18.908 5.081,-5.365 13.544,-5.588 18.908,-0.507 5.359,5.081 5.585,13.543 0.505,18.907 -5.081,5.359 -13.546,5.588 -18.911,0.508 m 69.866,-20.23 c -5.715,-3.555 -7.468,-11.063 -3.917,-16.779 3.553,-5.716 11.063,-7.469 16.778,-3.917 5.716,3.55 7.466,11.057 3.918,16.777 -3.55,5.717 -11.06,7.469 -16.779,3.919 m -19.405,-7.514 c 5.582,4.312 6.619,12.337 2.307,17.921 -4.315,5.588 -12.336,6.625 -17.924,2.309 -5.587,-4.313 -6.621,-12.336 -2.308,-17.919 4.31,-5.59 12.336,-6.626 17.925,-2.311 m 69.34,-70.28 c -1.191,-2.462 -1.519,-5.351 -0.717,-8.189 0.186,-0.663 0.428,-1.296 0.717,-1.897 l 0,10.086 z m -61.104,31.549 c 3.243,-6.269 10.953,-8.716 17.222,-5.474 6.266,3.246 8.717,10.956 5.473,17.224 -3.247,6.269 -10.958,8.718 -17.225,5.474 -6.268,-3.246 -8.717,-10.956 -5.47,-17.224 m -31.342,12.319 c 4.042,-6.182 12.327,-7.919 18.511,-3.872 6.183,4.04 7.92,12.328 3.876,18.512 -4.045,6.184 -12.331,7.916 -18.515,3.875 -6.179,-4.045 -7.917,-12.332 -3.872,-18.515 m 62.152,-29.671 c 2.473,-6.26 9.55,-9.327 15.807,-6.854 6.26,2.473 9.327,9.554 6.851,15.81 -2.474,6.258 -9.547,9.325 -15.805,6.847 -6.26,-2.472 -9.326,-9.548 -6.853,-15.803 m 30.294,-36.229 c -1.856,0.563 -3.873,0.69 -5.908,0.285 -6.601,-1.317 -10.882,-7.734 -9.567,-14.332 1.317,-6.599 7.733,-10.88 14.332,-9.562 0.389,0.077 0.771,0.172 1.143,0.284 l 0,23.325 z m -34.233,24.5 c -6.747,-2.078 -10.53,-9.225 -8.459,-15.969 2.076,-6.747 9.22,-10.535 15.968,-8.464 6.749,2.078 10.534,9.226 8.459,15.972 -2.071,6.744 -9.219,10.531 -15.968,8.461 m -37.097,1.747 c 2.874,-6.805 10.719,-9.99 17.522,-7.116 6.806,2.876 9.994,10.72 7.121,17.523 -2.875,6.806 -10.72,9.99 -17.523,7.117 -6.805,-2.875 -9.995,-10.719 -7.12,-17.524 m 71.33,-80.231 c -5.707,-1.094 -9.974,-6.162 -9.872,-12.177 0.103,-5.863 4.333,-10.686 9.872,-11.75 l 0,23.927 z m -21.443,29.102 c -7.009,-0.84 -12.012,-7.193 -11.177,-14.204 0.835,-7.009 7.194,-12.012 14.205,-11.178 7.007,0.842 12.007,7.195 11.171,14.203 -0.833,7.01 -7.193,12.014 -14.199,11.179 m -36.189,8.343 c 1.609,-7.209 8.762,-11.744 15.969,-10.132 7.21,1.613 11.746,8.761 10.132,15.972 -1.613,7.21 -8.761,11.745 -15.972,10.132 -7.209,-1.613 -11.742,-8.76 -10.129,-15.972 M 611.891,99.848 c -0.215,-1.286 -0.206,-2.567 0,-3.799 l 0,3.799 z m -5.701,64.654 c 0.43,7.048 -4.932,13.106 -11.978,13.53 -7.048,0.431 -13.103,-4.927 -13.533,-11.974 -0.425,-7.046 4.934,-13.101 11.98,-13.531 7.049,-0.43 13.102,4.933 13.531,11.975 m -46.097,28.206 c 0.301,-7.382 6.526,-13.116 13.906,-12.819 7.382,0.299 13.121,6.523 12.824,13.905 -0.301,7.381 -6.527,13.123 -13.907,12.823 -7.382,-0.304 -13.121,-6.528 -12.823,-13.909 m 51.798,-47.244 c -6.516,0.887 -12.593,-3.572 -13.658,-10.103 -1.09,-6.644 3.413,-12.907 10.054,-13.991 1.225,-0.201 2.436,-0.212 3.604,-0.054 l 0,24.148 z m 0,-133.11 c -0.393,0.32 -0.812,0.616 -1.257,0.885 -5.197,3.141 -11.953,1.483 -15.097,-3.714 -1.817,-3.002 -2.029,-6.527 -0.879,-9.575 l 17.233,0 0,12.404 z m -19.33,56.687 c 6.343,-2.256 13.306,1.056 15.561,7.393 2.258,6.342 -1.056,13.306 -7.396,15.564 -6.339,2.252 -13.304,-1.057 -15.559,-7.399 -2.257,-6.338 1.056,-13.308 7.394,-15.558 m 19.33,-18.081 c -1.012,1.154 -2.272,2.127 -3.746,2.827 -5.783,2.741 -12.693,0.275 -15.434,-5.505 -2.745,-5.78 -0.279,-12.692 5.5,-15.435 4.788,-2.271 10.351,-0.972 13.68,2.826 l 0,15.287 z m -38.511,66.978 c -1.68,-6.854 2.514,-13.773 9.371,-15.451 6.853,-1.677 13.773,2.515 15.451,9.37 1.68,6.856 -2.512,13.771 -9.366,15.454 -6.86,1.679 -13.773,-2.514 -15.456,-9.373 m -15.498,29.901 c -1.024,-7.316 4.078,-14.076 11.394,-15.101 7.317,-1.023 14.075,4.079 15.098,11.395 1.022,7.317 -4.075,14.076 -11.393,15.096 -7.315,1.023 -14.074,-4.075 -15.099,-11.39 m -10.186,-43.755 c -2.312,-7.014 1.498,-14.575 8.515,-16.89 7.015,-2.313 14.577,1.498 16.89,8.513 2.313,7.019 -1.498,14.575 -8.514,16.89 -7.017,2.316 -14.577,-1.495 -16.891,-8.513 m 16.367,-49.063 c 6.447,-2.878 14.004,0.013 16.879,6.462 2.878,6.444 -0.014,13.998 -6.459,16.878 -6.448,2.874 -14.002,-0.019 -16.879,-6.464 -2.874,-6.443 0.016,-14.002 6.459,-16.876 M 582.988,-0.05 c -0.712,0.984 -1.592,1.87 -2.632,2.616 -5.186,3.724 -12.401,2.549 -16.138,-2.616 l 18.77,0 z m -3.105,41.539 c -5.84,3.35 -13.284,1.336 -16.633,-4.499 -3.353,-5.836 -1.339,-13.282 4.5,-16.632 5.835,-3.351 13.277,-1.337 16.631,4.501 3.348,5.834 1.334,13.279 -4.498,16.63 M 529.86,62.851 c -3.529,-6.491 -1.129,-14.611 5.362,-18.138 6.489,-3.531 14.611,-1.13 18.136,5.362 3.53,6.489 1.13,14.61 -5.36,18.14 -6.489,3.529 -14.606,1.126 -18.138,-5.364 m 21.762,-30.094 c -5.826,3.979 -13.776,2.485 -17.756,-3.345 -3.984,-5.827 -2.485,-13.777 3.342,-17.756 5.825,-3.982 13.776,-2.485 17.759,3.34 3.982,5.827 2.487,13.776 -3.345,17.761 m -27.868,-5.256 c -5.757,4.633 -14.174,3.721 -18.807,-2.035 -4.63,-5.756 -3.718,-14.171 2.04,-18.805 5.752,-4.634 14.171,-3.718 18.8,2.037 4.631,5.753 3.723,14.171 -2.033,18.803 M 396.74,15.958 c -0.165,1.49 -0.539,2.983 -1.155,4.435 -0.659,1.555 -1.544,2.944 -2.593,4.157 0.627,0.203 1.245,0.459 1.857,0.74 0.427,-1.468 1.074,-2.898 1.957,-4.243 1,-1.526 2.229,-2.806 3.599,-3.856 -1.244,-0.248 -2.473,-0.656 -3.665,-1.233 m 4.068,331.003 c -1.156,-0.958 -2.196,-2.093 -3.07,-3.407 -0.933,-1.406 -1.604,-2.908 -2.039,-4.449 -0.514,0.412 -1.067,0.787 -1.638,1.141 0.99,1.165 1.827,2.493 2.463,3.971 0.721,1.674 1.112,3.403 1.233,5.124 0.892,-0.902 1.912,-1.703 3.051,-2.38 m -11.193,22.935 c 1.068,3.129 1.039,6.36 0.144,9.297 1.427,-2.911 3.826,-5.368 7.003,-6.824 0.677,-0.31 1.37,-0.547 2.065,-0.747 -1.389,-1.159 -2.602,-2.576 -3.535,-4.252 -1.07,-1.92 -1.667,-3.971 -1.851,-6.027 -1.418,1.484 -3.151,2.715 -5.155,3.578 -0.387,0.167 -0.777,0.302 -1.169,0.435 1.056,1.328 1.919,2.843 2.498,4.54 m -22.034,-13.212 c -0.669,-1.551 -1.062,-3.15 -1.214,-4.745 -0.581,0.314 -1.193,0.583 -1.82,0.832 0.766,1.323 1.352,2.779 1.715,4.346 0.411,1.777 0.486,3.549 0.299,5.265 1.039,-0.729 2.186,-1.336 3.428,-1.799 -0.964,-1.148 -1.784,-2.45 -2.408,-3.899 M 365.592,3.1 c 0.104,1.495 0.002,3.029 -0.345,4.566 -0.371,1.647 -0.992,3.171 -1.806,4.551 0.654,0.088 1.308,0.228 1.96,0.396 0.159,-1.52 0.539,-3.043 1.167,-4.524 0.712,-1.678 1.692,-3.155 2.851,-4.432 C 368.15,3.636 366.866,3.453 365.592,3.1 m -4.677,376.582 c -0.709,-2.08 -0.93,-4.206 -0.742,-6.262 -1.661,1.207 -3.587,2.109 -5.714,2.601 -0.409,0.094 -0.817,0.157 -1.225,0.218 0.801,1.494 1.379,3.139 1.646,4.911 0.491,3.265 -0.109,6.435 -1.511,9.163 1.924,-2.603 4.719,-4.587 8.1,-5.452 0.722,-0.184 1.445,-0.294 2.166,-0.366 -1.16,-1.389 -2.101,-2.999 -2.72,-4.813 m -25.358,-15.459 c -0.381,-1.647 -0.482,-3.291 -0.347,-4.889 -0.627,0.204 -1.277,0.36 -1.939,0.492 0.518,1.439 0.836,2.977 0.914,4.583 0.086,1.822 -0.157,3.58 -0.649,5.236 1.152,-0.532 2.389,-0.924 3.693,-1.159 -0.744,-1.301 -1.317,-2.728 -1.672,-4.263 m -10.275,15.14 c -1.85,0.892 -3.906,1.436 -6.087,1.539 -0.419,0.021 -0.831,0.01 -1.243,-0.003 0.523,1.613 0.798,3.333 0.743,5.124 -0.101,3.306 -1.264,6.323 -3.135,8.758 2.358,-2.222 5.467,-3.678 8.953,-3.927 0.745,-0.053 1.476,-0.031 2.199,0.027 -0.894,-1.574 -1.531,-3.327 -1.816,-5.225 -0.328,-2.174 -0.166,-4.304 0.386,-6.293 m -22.047,-18.316 c -0.653,0.089 -1.321,0.127 -1.995,0.138 0.252,1.507 0.29,3.076 0.078,4.669 -0.24,1.81 -0.792,3.497 -1.571,5.037 1.229,-0.317 2.516,-0.483 3.841,-0.48 -0.499,-1.414 -0.81,-2.921 -0.886,-4.495 -0.08,-1.687 0.115,-3.322 0.533,-4.869 m -19.607,18.359 c -0.416,-0.054 -0.82,-0.139 -1.224,-0.224 0.226,1.679 0.19,3.422 -0.184,5.176 -0.69,3.232 -2.369,5.99 -4.643,8.051 2.716,-1.764 6.033,-2.641 9.506,-2.263 0.741,0.082 1.455,0.233 2.154,0.418 -0.597,-1.708 -0.911,-3.544 -0.852,-5.46 0.066,-2.198 0.607,-4.266 1.506,-6.125 -1.979,0.546 -4.099,0.714 -6.263,0.427 M 269.48,356.803 c -0.021,1.528 -0.263,3.079 -0.755,4.609 -0.558,1.736 -1.402,3.296 -2.443,4.673 1.266,-0.092 2.56,-0.024 3.862,0.216 -0.239,-1.482 -0.275,-3.022 -0.068,-4.586 0.221,-1.673 0.704,-3.246 1.391,-4.693 -0.659,-0.029 -1.322,-0.11 -1.987,-0.219 m -20.584,14.785 c -0.399,-0.129 -0.782,-0.284 -1.164,-0.441 -0.078,1.693 -0.425,3.401 -1.105,5.058 -1.257,3.061 -3.406,5.477 -6.016,7.1 2.99,-1.255 6.414,-1.527 9.766,-0.532 0.717,0.212 1.394,0.49 2.05,0.797 -0.284,-1.788 -0.266,-3.653 0.134,-5.53 0.457,-2.148 1.357,-4.086 2.571,-5.754 -2.044,0.184 -4.158,-0.03 -6.236,-0.698 M 236.973,8.545 c -0.971,0.819 -2.059,1.526 -3.255,2.099 1.064,1.057 1.999,2.282 2.751,3.669 0.805,1.485 1.34,3.042 1.634,4.618 0.551,-0.365 1.137,-0.689 1.739,-0.993 -0.881,-1.249 -1.596,-2.646 -2.098,-4.174 -0.57,-1.734 -0.805,-3.493 -0.771,-5.219 m 0.998,347.736 c 0.03,-1.5 0.269,-3.02 0.752,-4.522 0.517,-1.607 1.272,-3.068 2.207,-4.368 -0.644,-0.147 -1.283,-0.346 -1.918,-0.572 -0.295,1.499 -0.81,2.982 -1.568,4.4 -0.86,1.608 -1.968,2.993 -3.238,4.162 1.262,0.135 2.525,0.432 3.765,0.9 m -21.85,1.408 c -0.37,-0.198 -0.72,-0.418 -1.067,-0.641 -0.379,1.652 -1.026,3.271 -1.991,4.782 -1.78,2.784 -4.323,4.775 -7.176,5.907 3.163,-0.698 6.576,-0.353 9.694,1.22 0.666,0.337 1.282,0.731 1.872,1.15 0.041,-1.809 0.392,-3.641 1.12,-5.416 0.835,-2.032 2.067,-3.776 3.56,-5.201 -2.045,-0.183 -4.087,-0.771 -6.012,-1.801 M 204.559,339.12 c 1.218,0.359 2.409,0.877 3.545,1.561 0.297,-1.472 0.804,-2.926 1.547,-4.318 0.796,-1.489 1.802,-2.792 2.953,-3.905 -0.607,-0.259 -1.2,-0.569 -1.785,-0.905 -0.557,1.424 -1.33,2.79 -2.329,4.05 -1.134,1.429 -2.472,2.594 -3.931,3.517 m 3.045,-309.029 c 1.058,1.319 1.862,2.757 2.433,4.256 0.477,-0.457 0.995,-0.88 1.534,-1.286 -1.091,-1.072 -2.044,-2.32 -2.811,-3.735 -0.868,-1.603 -1.412,-3.291 -1.687,-4.995 -0.808,0.978 -1.752,1.868 -2.826,2.644 1.234,0.85 2.371,1.886 3.357,3.116 m -21.249,308.074 c -0.329,-0.261 -0.633,-0.541 -0.936,-0.823 -0.668,1.557 -1.593,3.034 -2.813,4.347 -2.252,2.425 -5.114,3.932 -8.129,4.535 3.24,-0.124 6.543,0.824 9.333,2.931 0.596,0.45 1.132,0.949 1.639,1.468 0.363,-1.775 1.035,-3.516 2.07,-5.134 1.184,-1.85 2.707,-3.346 4.43,-4.481 -1.979,-0.545 -3.884,-1.487 -5.594,-2.843 m -0.552,-26.663 c -0.802,1.3 -1.805,2.506 -3.013,3.567 -1.372,1.205 -2.897,2.114 -4.498,2.761 1.135,0.571 2.213,1.294 3.209,2.169 0.555,-1.395 1.312,-2.734 2.292,-3.972 1.049,-1.323 2.271,-2.426 3.604,-3.316 -0.551,-0.363 -1.079,-0.774 -1.594,-1.209 m -7.64,-263.193 c 1.366,0.616 2.67,1.432 3.86,2.466 1.275,1.108 2.323,2.377 3.152,3.747 0.387,-0.534 0.821,-1.043 1.278,-1.538 -1.264,-0.859 -2.423,-1.915 -3.429,-3.169 -1.141,-1.422 -1.978,-2.987 -2.553,-4.615 -0.621,1.108 -1.39,2.153 -2.308,3.109 m 4.69,-25.085 c -1.865,-2.736 -2.698,-5.863 -2.614,-8.936 -0.6,3.19 -2.26,6.199 -4.938,8.45 -0.57,0.48 -1.173,0.891 -1.79,1.269 1.648,0.748 3.195,1.79 4.541,3.157 1.541,1.567 2.662,3.388 3.385,5.322 0.972,-1.809 2.316,-3.457 4.019,-4.823 0.327,-0.263 0.668,-0.497 1.009,-0.729 -1.37,-0.997 -2.604,-2.229 -3.612,-3.71 m -18.082,264.081 c -1.021,1.136 -2.225,2.144 -3.603,2.973 -1.563,0.941 -3.226,1.561 -4.917,1.912 1.015,0.764 1.947,1.666 2.771,2.705 0.795,-1.274 1.78,-2.457 2.965,-3.499 1.268,-1.114 2.666,-1.981 4.136,-2.618 -0.477,-0.456 -0.923,-0.954 -1.352,-1.473 M 161.357,74.567 c -1.376,-1.195 -2.479,-2.584 -3.335,-4.082 -0.413,1.201 -0.983,2.367 -1.716,3.471 1.455,0.362 2.883,0.934 4.239,1.738 1.452,0.862 2.709,1.924 3.769,3.124 0.286,-0.595 0.623,-1.174 0.985,-1.744 -1.397,-0.621 -2.728,-1.453 -3.942,-2.507 m -4.919,-26.13 c -2.32,-2.361 -3.697,-5.288 -4.164,-8.326 -0.02,3.244 -1.116,6.503 -3.349,9.197 -0.475,0.573 -0.995,1.086 -1.535,1.567 1.756,0.442 3.464,1.191 5.033,2.297 1.795,1.265 3.223,2.853 4.279,4.626 0.633,-1.951 1.66,-3.811 3.09,-5.457 0.276,-0.318 0.57,-0.61 0.865,-0.9 -1.527,-0.737 -2.961,-1.727 -4.219,-3.004 m -11.98,54.358 c -1.567,-0.931 -2.9,-2.101 -4.01,-3.422 -0.191,1.254 -0.544,2.501 -1.066,3.717 1.495,0.097 3.001,0.403 4.478,0.953 1.584,0.59 3.011,1.411 4.269,2.404 0.176,-0.636 0.403,-1.265 0.657,-1.888 -1.485,-0.362 -2.944,-0.944 -4.328,-1.764 m -9.5,-24.837 c -2.707,-1.905 -4.585,-4.539 -5.587,-7.445 0.559,3.195 0.063,6.595 -1.653,9.644 -0.365,0.65 -0.786,1.247 -1.231,1.818 1.805,0.121 3.617,0.552 5.356,1.359 1.995,0.926 3.684,2.236 5.041,3.793 0.275,-2.035 0.954,-4.049 2.068,-5.927 0.215,-0.361 0.451,-0.701 0.69,-1.039 -1.633,-0.453 -3.22,-1.171 -4.684,-2.203 m -12.943,86.193 c 0.261,1.243 0.369,2.536 0.307,3.858 1.434,-0.435 2.951,-0.677 4.527,-0.681 1.69,-0.006 3.315,0.262 4.842,0.749 -0.059,-0.657 -0.067,-1.327 -0.048,-2.001 -1.517,0.184 -3.086,0.152 -4.669,-0.132 -1.795,-0.32 -3.455,-0.946 -4.959,-1.793 m -2.927,-53.308 c -3.005,-1.394 -5.323,-3.652 -6.827,-6.332 1.122,3.045 1.241,6.481 0.099,9.788 -0.244,0.704 -0.551,1.367 -0.887,2.008 1.798,-0.203 3.662,-0.102 5.519,0.381 2.125,0.555 4.019,1.541 5.63,2.83 -0.092,-2.051 0.216,-4.153 0.978,-6.198 0.146,-0.393 0.318,-0.769 0.492,-1.144 -1.688,-0.155 -3.378,-0.578 -5.004,-1.333 m -9.747,35.191 c -3.2,-0.833 -5.881,-2.638 -7.839,-5.005 1.644,2.795 2.373,6.153 1.837,9.607 -0.113,0.737 -0.297,1.444 -0.513,2.135 1.735,-0.522 3.587,-0.754 5.502,-0.611 2.19,0.165 4.229,0.797 6.045,1.777 -0.457,-2.002 -0.529,-4.126 -0.146,-6.276 0.073,-0.412 0.175,-0.811 0.279,-1.21 -1.689,0.151 -3.429,0.035 -5.165,-0.417 m -11.897,32.848 c 2.112,2.455 3.425,5.624 3.514,9.113 0.02,0.745 -0.035,1.474 -0.124,2.192 1.612,-0.822 3.391,-1.38 5.298,-1.581 2.187,-0.228 4.31,0.031 6.273,0.672 -0.808,-1.888 -1.259,-3.965 -1.265,-6.149 -0.002,-0.42 0.027,-0.832 0.058,-1.243 -1.635,0.45 -3.367,0.647 -5.156,0.512 -3.292,-0.249 -6.25,-1.542 -8.598,-3.516 m 7.842,46.303 c 0.152,0.729 0.228,1.456 0.268,2.177 1.441,-1.096 3.092,-1.965 4.935,-2.503 2.108,-0.615 4.24,-0.74 6.283,-0.461 -1.13,-1.712 -1.944,-3.675 -2.341,-5.822 -0.076,-0.412 -0.12,-0.821 -0.163,-1.23 -1.528,0.733 -3.196,1.236 -4.979,1.423 -3.291,0.342 -6.437,-0.407 -9.102,-1.936 2.522,2.039 4.385,4.927 5.099,8.352 m 10.895,35.816 c 0.28,0.69 0.485,1.391 0.653,2.094 1.221,-1.335 2.69,-2.485 4.405,-3.342 1.968,-0.982 4.045,-1.486 6.109,-1.576 -1.419,-1.484 -2.57,-3.271 -3.343,-5.313 -0.149,-0.392 -0.267,-0.79 -0.382,-1.186 -1.373,0.996 -2.926,1.79 -4.647,2.292 -3.173,0.926 -6.4,0.755 -9.295,-0.272 2.843,1.556 5.188,4.063 6.5,7.303 m 15.789,-60.904 c -0.177,-0.638 -0.303,-1.295 -0.406,-1.962 -1.461,0.452 -3.014,0.701 -4.625,0.705 -1.823,0.006 -3.567,-0.315 -5.197,-0.88 0.479,1.176 0.816,2.43 0.991,3.743 1.334,-0.684 2.786,-1.194 4.336,-1.48 1.662,-0.307 3.31,-0.333 4.901,-0.126 m 5.476,-65.552 c -1.526,-0.09 -3.064,-0.402 -4.571,-0.963 -1.709,-0.635 -3.231,-1.548 -4.56,-2.649 0.036,1.268 -0.089,2.56 -0.386,3.851 1.489,-0.172 3.027,-0.138 4.579,0.139 1.663,0.296 3.214,0.848 4.629,1.6 0.058,-0.658 0.17,-1.318 0.309,-1.978 m -0.239,95.15 c -1.356,0.706 -2.838,1.228 -4.42,1.52 -1.793,0.331 -3.567,0.327 -5.272,0.062 0.681,1.072 1.237,2.244 1.644,3.504 1.191,-0.912 2.529,-1.674 4.005,-2.232 1.579,-0.598 3.192,-0.918 4.792,-0.998 -0.287,-0.595 -0.53,-1.218 -0.749,-1.856 m -3.905,64.6 c 0.399,0.63 0.725,1.283 1.016,1.945 0.963,-1.532 2.204,-2.924 3.739,-4.073 1.759,-1.317 3.713,-2.185 5.726,-2.641 -1.662,-1.207 -3.115,-2.759 -4.241,-4.631 -0.216,-0.36 -0.402,-0.729 -0.587,-1.098 -1.173,1.224 -2.559,2.282 -4.163,3.083 -2.957,1.477 -6.162,1.884 -9.192,1.392 3.075,1.023 5.831,3.072 7.702,6.023 m 16.163,-32.862 c -0.388,-0.535 -0.738,-1.104 -1.068,-1.693 -1.208,0.937 -2.572,1.714 -4.076,2.284 -1.706,0.646 -3.452,0.959 -5.177,1.003 0.861,0.932 1.616,1.986 2.241,3.153 1.008,-1.109 2.187,-2.096 3.537,-2.908 1.448,-0.871 2.981,-1.474 4.543,-1.839 M 156.087,324 c 0.505,0.548 0.943,1.132 1.348,1.731 0.673,-1.679 1.645,-3.27 2.95,-4.676 1.495,-1.611 3.263,-2.812 5.162,-3.62 -1.849,-0.891 -3.553,-2.159 -4.993,-3.798 -0.278,-0.317 -0.528,-0.648 -0.777,-0.979 -0.936,1.415 -2.111,2.705 -3.548,3.78 -2.644,1.982 -5.725,2.954 -8.795,3.009 3.209,0.458 6.286,1.982 8.653,4.553 M 418.626,16.515 c 0.351,0.23 0.679,0.481 1.006,0.734 0.525,-1.611 1.314,-3.166 2.412,-4.583 2.023,-2.616 4.738,-4.374 7.685,-5.244 -3.216,0.414 -6.59,-0.235 -9.557,-2.084 -0.633,-0.395 -1.211,-0.842 -1.761,-1.313 -0.203,1.798 -0.717,3.59 -1.601,5.292 -1.014,1.952 -2.398,3.58 -4.014,4.866 2.021,0.366 4.004,1.134 5.83,2.332 m 9.848,19.528 c -1.18,-0.467 -2.318,-1.089 -3.386,-1.869 -0.427,1.437 -1.062,2.839 -1.927,4.157 -0.927,1.413 -2.045,2.622 -3.294,3.628 0.581,0.312 1.143,0.673 1.694,1.06 0.682,-1.369 1.574,-2.661 2.682,-3.827 1.257,-1.321 2.695,-2.361 4.231,-3.149 m -3.401,289.207 c -1.171,-1.218 -2.1,-2.577 -2.803,-4.018 -0.434,0.497 -0.913,0.965 -1.412,1.416 1.183,0.97 2.244,2.127 3.134,3.468 1.009,1.52 1.703,3.154 2.13,4.826 0.717,-1.046 1.577,-2.018 2.577,-2.886 -1.306,-0.738 -2.532,-1.668 -3.626,-2.806 m -3.292,27.37 c 1.609,2.89 2.157,6.075 1.8,9.127 0.883,-3.12 2.806,-5.968 5.673,-7.971 0.611,-0.426 1.249,-0.782 1.897,-1.102 -1.574,-0.894 -3.02,-2.07 -4.238,-3.552 -1.393,-1.698 -2.347,-3.61 -2.892,-5.601 -1.131,1.713 -2.617,3.233 -4.434,4.441 -0.351,0.232 -0.711,0.435 -1.072,0.637 1.275,1.117 2.394,2.454 3.266,4.021 M 446.522,38.627 c 0.305,0.29 0.583,0.597 0.86,0.903 0.804,-1.492 1.857,-2.88 3.189,-4.079 2.46,-2.211 5.445,-3.455 8.499,-3.786 -3.238,-0.167 -6.441,-1.407 -9.031,-3.755 -0.552,-0.501 -1.039,-1.044 -1.496,-1.603 -0.521,1.732 -1.346,3.404 -2.519,4.92 -1.344,1.738 -2.997,3.092 -4.816,4.069 1.921,0.721 3.732,1.829 5.314,3.331 m -1.84,26.607 c 0.916,-1.223 2.024,-2.335 3.323,-3.283 1.472,-1.077 3.071,-1.844 4.722,-2.346 -1.079,-0.668 -2.087,-1.484 -2.999,-2.444 -0.678,1.338 -1.553,2.603 -2.639,3.745 -1.164,1.225 -2.481,2.214 -3.888,2.981 0.517,0.412 1.006,0.868 1.481,1.347 m 3.108,238.17 c 1.265,1.315 2.238,2.797 2.957,4.367 0.519,-1.159 1.191,-2.268 2.02,-3.301 -1.416,-0.492 -2.788,-1.19 -4.066,-2.114 -1.369,-0.988 -2.526,-2.158 -3.475,-3.449 -0.338,0.567 -0.725,1.113 -1.136,1.647 1.336,0.743 2.586,1.691 3.7,2.85 m 2.558,26.469 c 2.098,2.557 3.207,5.595 3.399,8.661 0.312,-3.228 1.694,-6.374 4.157,-8.856 0.526,-0.529 1.089,-0.991 1.669,-1.423 -1.707,-0.597 -3.34,-1.496 -4.802,-2.736 -1.675,-1.423 -2.955,-3.134 -3.847,-4.996 -0.807,1.889 -1.997,3.65 -3.57,5.164 -0.302,0.29 -0.621,0.552 -0.938,0.814 1.454,0.871 2.794,1.986 3.932,3.372 M 463.461,91.219 c 1.12,-1.041 2.409,-1.937 3.856,-2.639 1.64,-0.797 3.351,-1.266 5.065,-1.464 -0.942,-0.851 -1.788,-1.835 -2.515,-2.942 -0.906,1.196 -1.993,2.286 -3.266,3.218 -1.363,0.996 -2.834,1.734 -4.355,2.237 0.435,0.497 0.834,1.033 1.215,1.59 m 3.688,185.591 c 1.479,1.067 2.702,2.351 3.689,3.766 0.304,-1.233 0.767,-2.445 1.398,-3.61 -1.481,-0.231 -2.956,-0.672 -4.379,-1.352 -1.523,-0.727 -2.87,-1.672 -4.034,-2.772 -0.231,0.618 -0.514,1.223 -0.823,1.822 1.446,0.493 2.846,1.203 4.149,2.146 m 7.244,25.585 c 2.522,2.14 4.156,4.931 4.892,7.916 -0.27,-3.233 0.529,-6.576 2.509,-9.457 0.423,-0.614 0.895,-1.17 1.39,-1.699 -1.788,-0.283 -3.557,-0.877 -5.219,-1.838 -1.902,-1.098 -3.465,-2.552 -4.676,-4.222 -0.456,2.001 -1.312,3.944 -2.59,5.713 -0.246,0.339 -0.511,0.656 -0.778,0.97 1.587,0.598 3.104,1.456 4.472,2.617 m 11.357,-52.166 c 0.078,-1.267 0.317,-2.541 0.729,-3.799 -1.498,0.037 -3.026,-0.134 -4.546,-0.549 -1.63,-0.444 -3.124,-1.134 -4.467,-2.01 -0.117,0.65 -0.287,1.297 -0.486,1.942 1.514,0.226 3.019,0.675 4.471,1.37 1.644,0.786 3.075,1.83 4.299,3.046 m 7.395,20.834 c 2.863,1.655 4.967,4.109 6.225,6.912 -0.841,-3.131 -0.65,-6.561 0.783,-9.747 0.306,-0.681 0.672,-1.314 1.064,-1.922 -1.81,0.042 -3.655,-0.227 -5.461,-0.875 -2.068,-0.743 -3.867,-1.896 -5.359,-3.324 -0.09,2.051 -0.586,4.118 -1.528,6.087 -0.181,0.378 -0.386,0.737 -0.592,1.094 1.668,0.304 3.315,0.878 4.868,1.775 m 12.856,-34.174 c 3.113,1.117 5.622,3.156 7.36,5.689 -1.387,-2.932 -1.812,-6.342 -0.969,-9.734 0.179,-0.724 0.425,-1.411 0.703,-2.079 -1.774,0.363 -3.638,0.428 -5.531,0.113 -2.168,-0.36 -4.143,-1.174 -5.864,-2.313 0.277,2.035 0.157,4.157 -0.417,6.261 -0.11,0.406 -0.249,0.796 -0.388,1.186 1.695,0.002 3.418,0.271 5.106,0.877 m 14.798,-31.646 c -1.885,-2.635 -2.909,-5.91 -2.688,-9.395 0.048,-0.744 0.167,-1.464 0.321,-2.171 -1.679,0.674 -3.5,1.07 -5.417,1.098 -2.199,0.032 -4.288,-0.416 -6.186,-1.23 0.636,1.954 0.9,4.064 0.71,6.24 -0.036,0.417 -0.102,0.823 -0.17,1.23 1.668,-0.301 3.41,-0.343 5.178,-0.048 3.26,0.543 6.091,2.097 8.252,4.276 m -3.661,-46.82 c -0.086,-0.741 -0.097,-1.473 -0.073,-2.196 -1.532,0.963 -3.253,1.679 -5.136,2.049 -2.157,0.425 -4.293,0.358 -6.305,-0.103 0.974,1.807 1.608,3.837 1.81,6.011 0.039,0.418 0.046,0.831 0.052,1.243 1.588,-0.594 3.296,-0.947 5.089,-0.973 3.305,-0.049 6.368,0.976 8.884,2.734 -2.325,-2.255 -3.918,-5.295 -4.321,-8.765 m -7.642,-36.65 c -0.218,-0.713 -0.358,-1.431 -0.463,-2.148 -1.337,1.222 -2.904,2.234 -4.691,2.936 -2.045,0.801 -4.158,1.117 -6.219,1.021 1.28,1.606 2.267,3.488 2.853,5.592 0.113,0.404 0.194,0.808 0.274,1.213 1.456,-0.868 3.073,-1.52 4.832,-1.866 3.245,-0.636 6.444,-0.173 9.236,1.109 -2.693,-1.804 -4.804,-4.512 -5.822,-7.857 M 495.433,87.076 c -0.341,-0.663 -0.609,-1.342 -0.839,-2.027 -1.097,1.44 -2.458,2.716 -4.091,3.722 -1.87,1.155 -3.892,1.843 -5.937,2.119 1.545,1.349 2.851,3.025 3.803,4.989 0.184,0.378 0.336,0.763 0.487,1.147 1.279,-1.114 2.753,-2.045 4.423,-2.7 3.082,-1.207 6.316,-1.322 9.294,-0.555 -2.976,-1.294 -5.542,-3.583 -7.14,-6.695 m -8.625,30.618 c -0.774,-1.004 -1.431,-2.121 -1.949,-3.339 -1.104,1.014 -2.367,1.892 -3.785,2.58 -1.519,0.737 -3.099,1.201 -4.685,1.424 0.338,0.567 0.634,1.164 0.909,1.779 1.287,-0.825 2.715,-1.477 4.263,-1.909 1.756,-0.491 3.524,-0.645 5.247,-0.535 m -1.059,33.372 c 1.414,-0.58 2.936,-0.965 4.537,-1.114 1.816,-0.169 3.582,-0.007 5.257,0.409 -0.583,-1.128 -1.031,-2.345 -1.323,-3.638 -1.268,0.8 -2.667,1.437 -4.185,1.861 -1.627,0.455 -3.264,0.63 -4.865,0.566 0.232,0.619 0.418,1.261 0.579,1.916 m 12.56,32.997 c -0.371,-1.215 -0.595,-2.495 -0.651,-3.821 -1.392,0.564 -2.886,0.942 -4.458,1.088 -1.68,0.156 -3.322,0.036 -4.887,-0.312 0.119,0.649 0.187,1.315 0.228,1.988 1.495,-0.319 3.062,-0.427 4.664,-0.287 1.818,0.158 3.529,0.634 5.104,1.344 m -3.26,29.777 c -1.468,0.305 -3.003,0.41 -4.574,0.273 -1.684,-0.146 -3.279,-0.558 -4.755,-1.18 10e-4,0.66 -0.052,1.327 -0.131,1.996 1.528,-0.047 3.088,0.126 4.64,0.55 1.76,0.48 3.357,1.253 4.779,2.232 -0.149,-1.261 -0.141,-2.559 0.041,-3.871 M 475.399,55.451 c -0.454,-0.592 -0.838,-1.215 -1.188,-1.848 -0.822,1.613 -1.934,3.112 -3.36,4.395 -1.633,1.47 -3.5,2.507 -5.463,3.143 1.761,1.052 3.346,2.469 4.634,4.232 0.249,0.339 0.467,0.69 0.684,1.041 1.059,-1.325 2.345,-2.503 3.871,-3.444 2.813,-1.739 5.969,-2.43 9.032,-2.211 -3.155,-0.743 -6.083,-2.535 -8.21,-5.308 M 440.666,-0.05 c -0.135,0.247 -0.278,0.491 -0.429,0.734 -1.952,3.132 -4.906,5.253 -8.186,6.233 3.868,-0.511 7.931,0.461 11.261,3.038 1.026,0.794 1.906,1.703 2.668,2.681 0.618,-1.907 1.627,-3.719 3.062,-5.3 5.406,-5.96 14.614,-6.407 20.576,-0.999 1.805,1.638 3.096,3.627 3.88,5.767 0.619,-2.528 1.941,-4.914 3.977,-6.831 5.613,-5.295 14.453,-5.032 19.748,0.583 5.29,5.619 5.027,14.459 -0.586,19.749 -5.618,5.292 -14.458,5.03 -19.751,-0.585 -1.289,-1.37 -2.242,-2.932 -2.875,-4.586 -0.543,2.337 -1.666,4.573 -3.393,6.476 -2.484,2.736 -5.77,4.294 -9.174,4.673 3.899,0.188 7.724,1.87 10.541,5.002 0.868,0.964 1.57,2.016 2.146,3.113 0.947,-1.766 2.264,-3.369 3.957,-4.669 6.385,-4.895 15.526,-3.691 20.423,2.693 1.483,1.933 2.398,4.121 2.788,6.366 1.06,-2.376 2.788,-4.488 5.135,-6.013 6.468,-4.205 15.121,-2.366 19.325,4.104 4.205,6.469 2.367,15.119 -4.101,19.323 -6.474,4.206 -15.124,2.372 -19.327,-4.103 -1.025,-1.577 -1.685,-3.285 -2.013,-5.025 -0.952,2.202 -2.456,4.203 -4.496,5.768 -2.928,2.247 -6.436,3.194 -9.85,2.962 3.799,0.882 7.259,3.219 9.468,6.801 0.681,1.103 1.186,2.263 1.556,3.446 1.248,-1.57 2.83,-2.912 4.73,-3.886 7.157,-3.682 15.934,-0.86 19.616,6.291 1.113,2.168 1.622,4.482 1.603,6.761 1.468,-2.148 3.543,-3.915 6.12,-4.995 7.122,-2.979 15.306,0.374 18.287,7.49 2.981,7.114 -0.373,15.3 -7.487,18.284 -7.116,2.981 -15.301,-0.373 -18.283,-7.488 -0.728,-1.737 -1.073,-3.536 -1.084,-5.307 -1.331,1.997 -3.168,3.696 -5.454,4.872 -3.288,1.69 -6.916,1.993 -10.239,1.148 3.59,1.544 6.585,4.464 8.124,8.392 0.472,1.208 0.761,2.44 0.915,3.671 1.508,-1.322 3.305,-2.361 5.348,-2.983 7.698,-2.343 15.831,1.998 18.172,9.694 0.71,2.332 0.798,4.701 0.374,6.939 1.828,-1.85 4.187,-3.219 6.916,-3.822 7.538,-1.662 14.99,3.096 16.653,10.631 1.66,7.534 -3.095,14.99 -10.63,16.652 -7.538,1.662 -14.989,-3.099 -16.656,-10.631 -0.406,-1.835 -0.423,-3.666 -0.119,-5.409 -1.664,1.726 -3.774,3.068 -6.23,3.816 -3.533,1.075 -7.152,0.729 -10.268,-0.69 3.248,2.161 5.668,5.566 6.481,9.696 0.249,1.272 0.313,2.534 0.244,3.771 1.72,-1.03 3.673,-1.731 5.794,-1.977 7.991,-0.929 15.223,4.794 16.153,12.787 0.281,2.421 -0.056,4.767 -0.874,6.894 2.13,-1.494 4.694,-2.421 7.49,-2.526 7.708,-0.291 14.194,5.719 14.484,13.433 0.291,7.708 -5.723,14.195 -13.435,14.486 -7.712,0.29 -14.197,-5.724 -14.487,-13.434 -0.07,-1.88 0.239,-3.684 0.851,-5.347 -1.947,1.403 -4.264,2.347 -6.817,2.644 -3.665,0.427 -7.161,-0.558 -9.972,-2.507 2.806,2.706 4.576,6.487 4.637,10.692 0.019,1.297 -0.143,2.552 -0.432,3.758 1.876,-0.707 3.923,-1.047 6.054,-0.912 8.029,0.513 14.121,7.434 13.61,15.465 -0.156,2.432 -0.906,4.681 -2.09,6.628 2.362,-1.092 5.052,-1.546 7.821,-1.15 7.639,1.089 12.946,8.165 11.854,15.802 -1.09,7.642 -8.165,12.946 -15.805,11.859 -7.64,-1.094 -12.944,-8.169 -11.857,-15.808 0.267,-1.861 0.894,-3.581 1.792,-5.106 -2.167,1.032 -4.615,1.549 -7.18,1.385 -3.68,-0.236 -6.943,-1.829 -9.36,-4.247 2.276,3.163 3.341,7.197 2.651,11.344 -0.213,1.28 -0.597,2.485 -1.096,3.621 1.972,-0.36 4.046,-0.33 6.118,0.185 7.813,1.935 12.571,9.832 10.628,17.643 -0.587,2.367 -1.726,4.447 -3.24,6.152 2.52,-0.654 5.249,-0.621 7.904,0.261 7.321,2.44 11.278,10.347 8.84,17.671 -2.437,7.322 -10.347,11.277 -17.668,8.841 -7.319,-2.436 -11.279,-10.347 -8.844,-17.666 0.596,-1.786 1.522,-3.368 2.68,-4.71 -2.315,0.629 -4.817,0.7 -7.312,0.082 -3.587,-0.889 -6.518,-3.046 -8.464,-5.865 1.681,3.522 2.013,7.688 0.589,11.653 -0.438,1.222 -1.031,2.339 -1.725,3.367 2.006,-0.003 4.044,0.396 5.992,1.272 7.338,3.302 10.608,11.924 7.307,19.26 -1.001,2.224 -2.496,4.067 -4.29,5.474 2.596,-0.192 5.276,0.327 7.73,1.671 6.768,3.705 9.249,12.192 5.543,18.961 -3.704,6.768 -12.191,9.248 -18.959,5.543 -6.773,-3.706 -9.253,-12.193 -5.548,-18.962 0.905,-1.65 2.096,-3.041 3.475,-4.153 -2.391,0.205 -4.864,-0.172 -7.209,-1.226 -3.37,-1.514 -5.868,-4.158 -7.28,-7.279 1.024,3.766 0.607,7.923 -1.499,11.569 -0.65,1.123 -1.433,2.118 -2.299,3.005 1.972,0.355 3.905,1.113 5.665,2.323 6.629,4.557 8.311,13.622 3.751,20.253 -1.381,2.009 -3.179,3.555 -5.194,4.619 2.589,0.274 5.132,1.263 7.306,3.023 5.998,4.855 6.924,13.649 2.067,19.648 -4.855,5.998 -13.649,6.928 -19.648,2.071 -5.997,-4.856 -6.924,-13.651 -2.067,-19.649 1.183,-1.463 2.603,-2.618 4.158,-3.467 -2.39,-0.225 -4.758,-1.038 -6.877,-2.494 -3.045,-2.093 -5.03,-5.143 -5.861,-8.467 0.337,3.89 -0.814,7.911 -3.54,11.126 -0.839,0.988 -1.787,1.825 -2.797,2.543 1.878,0.701 3.644,1.791 5.16,3.294 5.708,5.672 5.741,14.89 0.073,20.6 -1.718,1.731 -3.764,2.931 -5.936,3.617 2.498,0.733 4.822,2.16 6.646,4.28 5.033,5.845 4.375,14.667 -1.47,19.702 -5.846,5.035 -14.666,4.377 -19.702,-1.472 -5.037,-5.849 -4.377,-14.667 1.47,-19.7 1.427,-1.229 3.031,-2.111 4.713,-2.67 -2.311,-0.648 -4.494,-1.869 -6.318,-3.68 -2.624,-2.606 -4.035,-5.963 -4.259,-9.383 -0.361,3.889 -2.212,7.639 -5.47,10.317 -1.001,0.822 -2.081,1.476 -3.203,2.002 1.721,1.025 3.264,2.412 4.486,4.162 4.605,6.598 2.993,15.678 -3.605,20.285 -1.999,1.396 -4.227,2.211 -6.488,2.499 2.327,1.166 4.36,2.986 5.778,5.398 3.908,6.649 1.684,15.21 -4.967,19.12 -6.653,3.91 -15.216,1.687 -19.121,-4.966 -3.909,-6.654 -1.687,-15.211 4.962,-19.121 1.623,-0.953 3.359,-1.536 5.114,-1.784 -2.158,-1.051 -4.089,-2.645 -5.561,-4.753 -2.114,-3.03 -2.903,-6.58 -2.514,-9.983 -1.05,3.76 -3.54,7.115 -7.221,9.166 -1.133,0.631 -2.314,1.083 -3.514,1.4 1.512,1.316 2.783,2.958 3.673,4.898 3.355,7.313 0.145,15.961 -7.169,19.314 -2.215,1.016 -4.551,1.42 -6.827,1.299 2.081,1.563 3.756,3.716 4.72,6.34 2.655,7.246 -1.057,15.272 -8.303,17.929 -7.243,2.66 -15.269,-1.058 -17.927,-8.299 -2.662,-7.242 1.056,-15.272 8.3,-17.93 1.767,-0.648 3.578,-0.911 5.349,-0.842 -1.936,-1.419 -3.552,-3.33 -4.623,-5.667 -1.538,-3.356 -1.681,-6.989 -0.694,-10.266 -1.706,3.509 -4.754,6.363 -8.74,7.723 -1.226,0.418 -2.469,0.651 -3.703,0.75 1.251,1.564 2.207,3.405 2.735,5.473 1.995,7.795 -2.71,15.73 -10.501,17.725 -2.361,0.604 -4.733,0.585 -6.951,0.06 1.767,1.909 3.03,4.326 3.508,7.081 1.326,7.603 -3.764,14.836 -11.364,16.16 -7.605,1.322 -14.838,-3.767 -16.161,-11.371 -1.325,-7.604 3.765,-14.833 11.368,-16.157 1.853,-0.322 3.683,-0.257 5.413,0.125 -1.651,-1.741 -2.899,-3.91 -3.537,-6.401 -0.913,-3.566 -0.411,-7.155 1.136,-10.198 -2.306,3.134 -5.809,5.385 -9.962,6.009 -1.283,0.193 -2.547,0.201 -3.781,0.078 0.954,1.764 1.567,3.747 1.718,5.878 0.567,8.024 -5.473,14.993 -13.501,15.561 -2.43,0.172 -4.759,-0.269 -6.847,-1.181 1.399,2.194 2.209,4.797 2.19,7.592 -0.054,7.719 -6.356,13.926 -14.074,13.871 -7.712,-0.056 -13.918,-6.353 -13.867,-14.071 0.058,-7.718 6.355,-13.925 14.072,-13.867 1.882,0.013 3.671,0.403 5.304,1.089 -1.313,-2.009 -2.153,-4.366 -2.334,-6.931 -0.264,-3.683 0.877,-7.133 2.952,-9.853 -2.83,2.685 -6.688,4.284 -10.897,4.156 -1.294,-0.039 -2.538,-0.256 -3.728,-0.598 0.622,1.906 0.871,3.967 0.639,6.09 -0.875,7.996 -8.065,13.772 -16.059,12.901 -2.424,-0.264 -4.638,-1.115 -6.531,-2.386 0.985,2.408 1.318,5.115 0.799,7.863 -1.433,7.584 -8.737,12.566 -16.321,11.133 -7.581,-1.433 -12.563,-8.737 -11.131,-16.322 1.433,-7.58 8.738,-12.562 16.319,-11.13 1.849,0.35 3.541,1.054 5.026,2.021 -0.935,-2.211 -1.341,-4.682 -1.062,-7.237 0.4,-3.67 2.137,-6.86 4.662,-9.167 -3.263,2.134 -7.342,3.019 -11.459,2.141 -1.269,-0.27 -2.455,-0.708 -3.566,-1.257 0.272,1.985 0.148,4.057 -0.459,6.104 -2.286,7.718 -10.387,12.115 -18.101,9.831 -2.338,-0.694 -4.365,-1.928 -6,-3.517 0.539,2.546 0.384,5.271 -0.617,7.882 -2.767,7.205 -10.841,10.804 -18.047,8.04 -7.206,-2.763 -10.803,-10.842 -8.041,-18.047 2.765,-7.202 10.841,-10.8 18.049,-8.037 1.757,0.674 3.295,1.668 4.583,2.884 -0.525,-2.342 -0.484,-4.845 0.248,-7.309 1.05,-3.544 3.334,-6.375 6.237,-8.194 -3.595,1.525 -7.772,1.67 -11.67,0.071 -1.2,-0.494 -2.29,-1.136 -3.286,-1.875 -0.087,2.002 -0.579,4.02 -1.541,5.927 -3.629,7.182 -12.386,10.061 -19.568,6.437 -2.176,-1.099 -3.949,-2.674 -5.274,-4.529 0.074,2.601 -0.566,5.253 -2.019,7.643 -4.003,6.593 -12.593,8.694 -19.187,4.69 -6.598,-4.009 -8.694,-12.598 -4.689,-19.195 4.005,-6.596 12.594,-8.692 19.194,-4.687 1.606,0.975 2.941,2.227 3.99,3.653 -0.098,-2.398 0.39,-4.853 1.548,-7.146 1.664,-3.294 4.412,-5.669 7.587,-6.941 -3.805,0.851 -7.934,0.245 -11.48,-2.02 -1.092,-0.7 -2.05,-1.526 -2.897,-2.431 -0.443,1.956 -1.285,3.853 -2.572,5.558 -4.852,6.417 -13.986,7.688 -20.406,2.837 -1.943,-1.468 -3.406,-3.334 -4.378,-5.393 -0.391,2.571 -1.493,5.065 -3.348,7.156 -5.123,5.773 -13.949,6.307 -19.722,1.188 -5.775,-5.12 -6.305,-13.949 -1.186,-19.721 5.115,-5.773 13.944,-6.306 19.721,-1.188 1.408,1.248 2.499,2.719 3.278,4.31 0.332,-2.376 1.251,-4.704 2.802,-6.755 2.227,-2.949 5.361,-4.797 8.719,-5.477 -3.902,0.163 -7.866,-1.169 -10.955,-4.038 -0.949,-0.881 -1.742,-1.864 -2.414,-2.905 -0.784,1.845 -1.953,3.561 -3.523,5.007 -5.92,5.449 -15.132,5.069 -20.586,-0.853 -1.649,-1.791 -2.756,-3.887 -3.344,-6.087 -0.845,2.461 -2.375,4.717 -4.574,6.444 -6.068,4.767 -14.847,3.714 -19.615,-2.354 -4.771,-6.067 -3.714,-14.851 2.353,-19.616 6.067,-4.766 14.848,-3.715 19.616,2.353 1.162,1.479 1.973,3.121 2.455,4.824 0.751,-2.278 2.071,-4.404 3.962,-6.145 2.716,-2.5 6.124,-3.757 9.544,-3.832 -3.863,-0.539 -7.52,-2.556 -10.045,-5.925 -0.776,-1.037 -1.382,-2.145 -1.857,-3.288 -1.101,1.672 -2.556,3.15 -4.357,4.293 -6.798,4.301 -15.797,2.283 -20.103,-4.513 -1.304,-2.059 -2.018,-4.319 -2.205,-6.59 -1.269,2.271 -3.177,4.219 -5.648,5.525 -6.82,3.607 -15.273,1.004 -18.883,-5.818 -3.607,-6.82 -0.999,-15.272 5.822,-18.879 6.82,-3.61 15.272,-1.003 18.879,5.818 0.879,1.663 1.383,3.421 1.553,5.183 1.146,-2.108 2.823,-3.964 4.993,-5.339 3.116,-1.974 6.693,-2.604 10.07,-2.067 -3.703,-1.221 -6.937,-3.859 -8.816,-7.623 -0.58,-1.159 -0.978,-2.36 -1.241,-3.57 -1.383,1.451 -3.079,2.645 -5.057,3.447 -7.454,3.021 -15.951,-0.569 -18.972,-8.029 -0.915,-2.257 -1.214,-4.609 -0.993,-6.876 -1.654,2.008 -3.88,3.583 -6.546,4.427 -7.357,2.33 -15.205,-1.738 -17.536,-9.097 -2.334,-7.353 1.736,-15.207 9.094,-17.537 7.359,-2.333 15.206,1.742 17.536,9.095 0.57,1.794 0.752,3.616 0.605,5.381 1.504,-1.869 3.485,-3.396 5.866,-4.361 3.421,-1.386 7.054,-1.368 10.281,-0.237 -3.425,-1.862 -6.136,-5.034 -7.315,-9.074 -0.363,-1.245 -0.541,-2.497 -0.584,-3.736 -1.62,1.18 -3.503,2.054 -5.594,2.492 -7.873,1.642 -15.587,-3.411 -17.229,-11.288 -0.498,-2.386 -0.374,-4.754 0.249,-6.945 -1.988,1.679 -4.459,2.833 -7.233,3.187 -7.654,0.982 -14.649,-4.428 -15.633,-12.082 -0.978,-7.655 4.431,-14.651 12.087,-15.629 7.653,-0.982 14.649,4.425 15.632,12.078 0.238,1.865 0.092,3.689 -0.368,5.399 1.813,-1.57 4.036,-2.717 6.551,-3.242 3.619,-0.753 7.196,-0.083 10.173,1.614 -3.046,-2.445 -5.156,-6.054 -5.597,-10.245 -0.134,-1.29 -0.085,-2.553 0.095,-3.78 -1.805,0.872 -3.812,1.394 -5.945,1.45 -8.045,0.211 -14.732,-6.137 -14.939,-14.183 -0.065,-2.436 0.48,-4.743 1.485,-6.788 -2.255,1.299 -4.892,1.993 -7.683,1.849 -7.709,-0.404 -13.627,-6.975 -13.227,-14.679 0.402,-7.707 6.974,-13.626 14.682,-13.227 7.706,0.405 13.622,6.975 13.222,14.68 -0.098,1.879 -0.568,3.648 -1.327,5.249 2.066,-1.222 4.46,-1.956 7.03,-2.023 3.683,-0.095 7.071,1.195 9.694,3.382 -2.548,-2.946 -3.968,-6.865 -3.653,-11.056 0.099,-1.292 0.373,-2.527 0.768,-3.701 -1.931,0.537 -4,0.693 -6.11,0.368 -7.949,-1.233 -13.399,-8.674 -12.166,-16.624 0.373,-2.411 1.323,-4.585 2.678,-6.419 -2.451,0.877 -5.171,1.09 -7.896,0.449 -7.514,-1.774 -12.163,-9.295 -10.387,-16.807 1.768,-7.509 9.296,-12.16 16.804,-10.387 7.508,1.77 12.159,9.294 10.391,16.801 -0.434,1.832 -1.214,3.491 -2.247,4.931 2.249,-0.835 4.735,-1.13 7.275,-0.737 3.65,0.564 6.761,2.448 8.952,5.08 -1.989,-3.358 -2.692,-7.477 -1.631,-11.554 0.326,-1.254 0.816,-2.419 1.414,-3.503 -1.994,0.182 -4.057,-0.035 -6.074,-0.733 -7.609,-2.628 -11.637,-10.922 -9.008,-18.528 0.796,-2.303 2.118,-4.272 3.778,-5.834 -2.567,0.423 -5.28,0.146 -7.844,-0.97 -7.07,-3.084 -10.304,-11.317 -7.222,-18.392 3.083,-7.071 11.317,-10.305 18.388,-7.222 7.074,3.086 10.31,11.316 7.222,18.393 -0.751,1.725 -1.813,3.216 -3.085,4.447 2.364,-0.418 4.863,-0.264 7.293,0.576 3.494,1.208 6.22,3.622 7.905,6.608 -1.364,-3.662 -1.323,-7.844 0.453,-11.669 0.545,-1.177 1.236,-2.236 2.018,-3.197 -1.997,-0.177 -3.989,-0.759 -5.851,-1.807 -7.015,-3.947 -9.495,-12.823 -5.552,-19.837 1.194,-2.124 2.846,-3.824 4.757,-5.064 -2.601,-0.042 -5.221,-0.801 -7.544,-2.359 -6.405,-4.299 -8.117,-12.973 -3.821,-19.383 4.296,-6.409 12.974,-8.123 19.382,-3.823 6.408,4.299 8.12,12.975 3.823,19.382 -1.047,1.564 -2.358,2.843 -3.83,3.828 2.4,0.01 4.83,0.607 7.07,1.867 3.221,1.812 5.473,4.67 6.599,7.908 -0.685,-3.844 0.103,-7.95 2.532,-11.395 0.747,-1.06 1.614,-1.978 2.556,-2.784 -1.934,-0.53 -3.791,-1.458 -5.436,-2.821 -6.194,-5.135 -7.054,-14.313 -1.92,-20.508 1.557,-1.878 3.487,-3.257 5.591,-4.136 -2.554,-0.505 -4.999,-1.719 -7.009,-3.668 -5.533,-5.372 -5.671,-14.217 -0.301,-19.751 1.391,-1.434 3.015,-2.506 4.754,-3.214 l 10.555,0 c 1.611,0.656 3.125,1.626 4.45,2.911 5.535,5.372 5.67,14.214 0.298,19.754 -1.312,1.352 -2.832,2.376 -4.459,3.083 2.362,0.438 4.648,1.459 6.629,3.101 2.846,2.356 4.551,5.571 5.081,8.957 0.011,-3.906 1.518,-7.808 4.52,-10.766 0.924,-0.908 1.942,-1.656 3.013,-2.279 -1.806,-0.867 -3.465,-2.111 -4.838,-3.745 -5.179,-6.156 -4.386,-15.347 1.768,-20.525 0.203,-0.17 0.409,-0.334 0.618,-0.491 l 17.522,0 c 0.862,0.648 1.665,1.403 2.39,2.263 2.377,2.829 3.479,6.297 3.396,9.722 0.709,-3.84 2.889,-7.406 6.372,-9.778 1.072,-0.73 2.208,-1.286 3.374,-1.709 C 190,0.288 189.784,0.122 189.572,-0.05 l 18.404,0 c -0.611,0.497 -1.27,0.951 -1.976,1.356 -0.647,0.37 -1.315,0.667 -1.99,0.928 1.487,1.031 2.822,2.332 3.901,3.918 1.237,1.817 2.015,3.808 2.381,5.839 1.28,-1.607 2.895,-2.989 4.814,-4.03 0.369,-0.2 0.747,-0.369 1.123,-0.537 -1.168,-1.226 -2.163,-2.656 -2.891,-4.293 -0.463,-1.042 -0.798,-2.108 -1.012,-3.181 l 53.39,0 c 0.823,1.201 1.495,2.534 1.973,3.988 0.526,1.604 0.774,3.23 0.783,4.832 0.606,-0.26 1.239,-0.474 1.885,-0.665 C 269.714,6.72 269.26,5.218 269.041,3.626 268.868,2.38 268.854,1.149 268.974,-0.05 l 31.358,0 c 0.139,1.45 0.072,2.877 -0.169,4.251 0.644,-0.147 1.306,-0.245 1.977,-0.316 -0.329,-1.26 -0.508,-2.578 -0.512,-3.935 l 31.512,0 c -10e-4,0.202 -0.005,0.406 -0.014,0.611 -0.07,1.687 -0.41,3.298 -0.965,4.801 0.66,-0.03 1.329,-0.008 2.002,0.041 -0.116,-1.524 -0.013,-3.09 0.34,-4.658 0.06,-0.268 0.128,-0.533 0.201,-0.795 l 53.006,0 c 0.216,0.105 0.428,0.214 0.64,0.324 0.014,-0.108 0.03,-0.215 0.047,-0.324 l 52.269,0 z m 17.325,0 c -2.358,0.633 -4.869,0.646 -7.265,0 l 7.265,0 z"
           style="fill:#ffffff;fill-opacity:1;fill-rule:nonzero;stroke:none"
           id="path32780" /><text
           transform="matrix(1,0,0,-1,184,167.958)"
           id="text32782"></text>
<text
           transform="matrix(1,0,0,-1,178.9995,200.9351)"
           id="text32786"></text>
</g></g></g></svg>